<?xml version="1.0" encoding="utf-8"?>
<!-- Generator: Adobe Illustrator 27.5.0, SVG Export Plug-In . SVG Version: 6.00 Build 0)  -->
<svg version="1.1" id="Layer_1" xmlns="http://www.w3.org/2000/svg" xmlns:xlink="http://www.w3.org/1999/xlink" x="0px" y="0px"
	 viewBox="0 0 500 400" style="enable-background:new 0 0 500 400;" xml:space="preserve">
<g id="XMLID_322_">
	<g id="XMLID_323_">
		<path id="XMLID_320_" style="fill:#F2F1F7;" d="M263.025,42.982c-70.123-1.48-74.281,48.788-135.116,61.645
			c-60.836,12.857-109.99,4.203-112.063,85.662c-3.072,120.706,87.567,201.291,246.519,167.043
			c84.357-18.176,160.378,16.899,199.777-16.008c21.356-17.837,16.406-73.744-8.821-121.376
			c-25.228-47.632,5.632-58.19-26.35-90.018c-24.251-24.135-62.591-8.358-81.914-28.192
			C325.735,81.902,307.213,43.915,263.025,42.982z"/>
		<g id="XMLID_321_">
			<path style="fill:#F2F1F7;" d="M197.117,362.483c-14.615,0-28.608-1.16-41.917-3.482c-31.819-5.553-59.093-17.601-81.065-35.81
				c-19.052-15.789-33.609-35.809-43.268-59.505c-9.618-23.595-14.122-50.198-13.387-79.072c0.811-31.884,8.793-52.32,25.119-64.312
				c14.949-10.981,35.424-14.196,59.132-17.919c9.574-1.503,19.474-3.058,29.784-5.237c27.004-5.707,42.944-18.806,58.359-31.474
				c19.863-16.323,38.628-31.741,78.51-30.9c35.38,0.747,54.976,25.083,70.721,44.638c4.439,5.514,8.633,10.721,12.853,15.054
				c9.084,9.325,22.566,10.696,36.839,12.148c16.193,1.647,32.937,3.35,46.009,16.36c17.242,17.16,16.69,28.708,16.052,42.078
				c-0.593,12.416-1.266,26.488,10.754,49.183c12.33,23.28,20.432,49.896,22.228,73.024c1.859,23.934-2.941,41.979-13.515,50.812
				c-22.107,18.464-55.794,15.999-94.8,13.149c-32.436-2.372-69.201-5.06-107.647,3.224
				C243.011,359.799,219.346,362.483,197.117,362.483z M265.312,36.459c-37.183,0-55.249,14.847-74.347,30.541
				c-15.575,12.799-31.679,26.034-59.094,31.827c-10.355,2.188-20.277,3.746-29.873,5.253c-47.066,7.391-81.072,12.73-82.799,80.576
				c-1.459,57.327,18.441,106.056,56.034,137.21c45.312,37.551,111.803,48.234,192.283,30.893
				c38.688-8.336,75.582-5.637,108.135-3.258c38.633,2.826,71.999,5.265,93.572-12.754c20.794-17.367,16.613-73.104-9.131-121.711
				c-12.24-23.111-11.556-37.433-10.952-50.07c0.645-13.496,1.154-24.156-15.547-40.778c-12.639-12.579-29.075-14.251-44.97-15.868
				c-14.593-1.485-28.376-2.887-37.896-12.659c-4.277-4.391-8.495-9.629-12.961-15.175c-16.33-20.281-34.839-43.267-69.418-43.997
				C267.321,36.47,266.309,36.459,265.312,36.459z"/>
		</g>
	</g>
	<g id="XMLID_379_">
		<g id="XMLID_384_">
			<path style="fill:#FFFFFF;" d="M151.476,275.317h-41.825c-18.262,0-18.244-27.613,0-27.613h41.825
				c14.782,0,13.806,16.487,13.806,13.807C165.283,269.135,159.101,275.317,151.476,275.317z"/>
			<path style="fill:#EEE4D9;" d="M151.476,275.883h-41.825c-9.795,0-14.256-7.448-14.256-14.368
				c0-6.925,4.461-14.378,14.256-14.378h41.825c7.089,0,10.604,3.738,12.305,6.873c2.058,3.794,2.082,7.673,2.082,7.712
				c0,0.071-0.007,0.135-0.019,0.191C165.629,269.653,159.267,275.883,151.476,275.883z M109.651,248.271
				c-9.017,0-13.123,6.865-13.123,13.245c0,6.374,4.107,13.235,13.123,13.235h41.825c7.301,0,13.24-5.939,13.24-13.24
				c-0.051-1.154-0.497-6.119-3.872-9.646c-2.281-2.385-5.433-3.594-9.368-3.594H109.651z"/>
		</g>
		<g id="XMLID_380_">
			<path id="XMLID_383_" style="fill:#D6723A;" d="M105.207,264.077c-2.759,0-2.567-3.134-2.567-2.567
				c0-2.759,3.134-2.567,2.567-2.567c2.759,0,2.567,3.134,2.567,2.567C107.774,264.27,104.64,264.077,105.207,264.077z"/>
			<path id="XMLID_382_" style="fill:#CC882A;" d="M142.797,264.077c-30.124,0-31.786,0.945-31.786-2.567
				c0-1.417,1.149-2.567,2.567-2.567h29.219C146.201,258.943,146.167,264.077,142.797,264.077z"/>
			<path id="XMLID_381_" style="fill:#CC882A;" d="M155.92,264.077h-6.07c-3.404,0-3.37-5.134,0-5.134
				c5.239,0,8.637-0.657,8.637,2.567C158.487,262.928,157.338,264.077,155.92,264.077z"/>
		</g>
	</g>
	<g id="XMLID_365_">
		<g id="XMLID_1040_">
			<g id="XMLID_905_">
				<g id="XMLID_364_">
					<path style="fill:#FFFFFF;" d="M348.321,200.787c-121.234,0-119.769,2.007-119.769-4.91c0-87.223-1.852-87.856,4.91-87.856
						c121.234,0,119.769-2.007,119.769,4.91C353.231,200.154,355.082,200.787,348.321,200.787z"/>
					<path style="fill:#EEE4D9;" d="M258.249,201.624c-21.833,0-27.524-0.418-29.404-2.294c-0.866-0.864-0.864-1.951-0.86-3.209
						l0-0.243c0-18.721-0.085-33.317-0.152-45.046c-0.188-32.385-0.232-40.08,2.105-42.431c0.94-0.946,2.195-0.946,3.524-0.946
						c27.338,0,48.066-0.1,64.721-0.181c43.284-0.21,52.291-0.253,54.755,2.204c0.866,0.865,0.864,1.951,0.861,3.209l0,0.243
						c0,18.721,0.085,33.317,0.152,45.046c0.188,32.385,0.232,40.08-2.105,42.431c-0.94,0.945-2.195,0.945-3.524,0.945
						c-27.341,0-48.07,0.1-64.726,0.181C273.348,201.584,265.021,201.624,258.249,201.624z M323.441,108.318
						c-6.787,0-15.095,0.04-25.253,0.089c-16.656,0.081-37.385,0.181-64.726,0.181c-1.31,0-2.142,0.03-2.72,0.611
						c-2.005,2.017-1.952,11.199-1.775,41.626c0.068,11.73,0.153,26.328,0.153,45.052l0,0.246c-0.003,1.231,0.019,1.897,0.527,2.404
						c2.129,2.124,13.104,2.071,53.944,1.873c16.657-0.081,37.387-0.181,64.732-0.181c1.31,0,2.142-0.03,2.72-0.611
						c2.005-2.017,1.952-11.199,1.775-41.625c-0.068-11.73-0.152-26.328-0.152-45.052l0-0.246c0.003-1.231-0.019-1.897-0.528-2.405
						C350.537,108.685,343.941,108.318,323.441,108.318z"/>
				</g>
				<g id="XMLID_894_">
					<path style="fill:#444244;" d="M353.231,112.632H228.552c0-2.545,2.063-4.61,4.61-4.61
						C355.981,108.021,353.231,106.29,353.231,112.632z"/>
					<path style="fill:#444244;" d="M353.797,113.198H227.985v-0.566c0-2.854,2.322-5.177,5.177-5.177
						c26.464,0,46.825-0.079,63.185-0.143c46.087-0.18,54.392-0.212,56.7,2.109c0.773,0.778,0.764,1.764,0.753,2.809
						L353.797,113.198z M229.158,112.065h123.51c0.006-0.926-0.027-1.445-0.425-1.845c-1.973-1.985-13.395-1.94-55.892-1.775
						c-16.361,0.064-36.724,0.143-63.189,0.143C231.124,108.588,229.434,110.103,229.158,112.065z"/>
				</g>
				<g id="XMLID_900_">
					<path id="XMLID_904_" style="fill:#BEC0C2;" d="M347.854,111.569c1.389,0,2.02,0.136,2.02-0.466c0-1.388,0.136-2.02-0.466-2.02
						c-1.388,0-2.02-0.136-2.02,0.466C347.389,110.938,347.253,111.569,347.854,111.569z"/>
					<g id="XMLID_901_">
						<g id="XMLID_903_">
							<path style="fill:#FFFFFF;" d="M347.907,111.335c-0.072,0-0.145-0.028-0.2-0.083c-0.111-0.111-0.111-0.29,0-0.401l1.45-1.45
								c0.111-0.111,0.29-0.111,0.4,0c0.111,0.111,0.111,0.29,0,0.401l-1.449,1.45C348.052,111.307,347.979,111.335,347.907,111.335
								z"/>
						</g>
						<g id="XMLID_902_">
							<path style="fill:#FFFFFF;" d="M349.356,111.335c-0.072,0-0.145-0.028-0.2-0.083l-1.45-1.45c-0.111-0.111-0.111-0.29,0-0.401
								c0.111-0.111,0.29-0.111,0.401,0l1.449,1.45c0.111,0.111,0.111,0.29,0,0.401
								C349.501,111.307,349.429,111.335,349.356,111.335z"/>
						</g>
					</g>
				</g>
			</g>
			<g id="XMLID_1039_">
				<g id="XMLID_978_">
					<g id="XMLID_951_">
						<g id="XMLID_936_">
							<path style="fill:#EEE4D9;" d="M247.336,120.339h-12.289c-0.157,0-0.283-0.127-0.283-0.283c0-0.157,0.127-0.283,0.283-0.283
								h12.289c0.157,0,0.283,0.127,0.283,0.283C247.619,120.212,247.493,120.339,247.336,120.339z"/>
						</g>
						<g id="XMLID_938_">
							<path style="fill:#EEE4D9;" d="M247.336,189.036h-12.289c-0.157,0-0.283-0.127-0.283-0.283c0-0.157,0.127-0.283,0.283-0.283
								h12.289c0.157,0,0.283,0.127,0.283,0.283C247.619,188.91,247.493,189.036,247.336,189.036z"/>
						</g>
						<g id="XMLID_937_">
							<path style="fill:#EEE4D9;" d="M235.047,189.036c-0.157,0-0.283-0.127-0.283-0.283v-68.698c0-0.157,0.127-0.283,0.283-0.283
								c0.157,0,0.283,0.127,0.283,0.283v68.698C235.33,188.91,235.203,189.036,235.047,189.036z"/>
						</g>
					</g>
					<g id="XMLID_950_">
						<g id="XMLID_949_">
							<path style="fill:#EEE4D9;" d="M252.356,126.629h-10.039c-0.157,0-0.283-0.127-0.283-0.283c0-0.157,0.127-0.283,0.283-0.283
								h10.039c0.157,0,0.283,0.127,0.283,0.283C252.639,126.502,252.512,126.629,252.356,126.629z"/>
						</g>
						<g id="XMLID_948_">
							<path style="fill:#EEE4D9;" d="M252.356,182.746h-10.039c-0.157,0-0.283-0.127-0.283-0.283s0.127-0.283,0.283-0.283h10.039
								c0.157,0,0.283,0.127,0.283,0.283S252.512,182.746,252.356,182.746z"/>
						</g>
						<g id="XMLID_947_">
							<path style="fill:#EEE4D9;" d="M242.317,182.746c-0.157,0-0.283-0.127-0.283-0.283v-56.118c0-0.157,0.127-0.283,0.283-0.283
								s0.283,0.127,0.283,0.283v56.118C242.6,182.62,242.473,182.746,242.317,182.746z"/>
						</g>
					</g>
					<g id="XMLID_954_">
						<g id="XMLID_957_">
							<path style="fill:#EEE4D9;" d="M258.524,134.98h-7.051c-0.157,0-0.283-0.127-0.283-0.283c0-0.157,0.127-0.283,0.283-0.283
								h7.051c0.157,0,0.283,0.127,0.283,0.283C258.808,134.854,258.681,134.98,258.524,134.98z"/>
						</g>
						<g id="XMLID_956_">
							<path style="fill:#EEE4D9;" d="M258.524,174.395h-7.051c-0.157,0-0.283-0.127-0.283-0.283s0.127-0.283,0.283-0.283h7.051
								c0.157,0,0.283,0.127,0.283,0.283S258.681,174.395,258.524,174.395z"/>
						</g>
						<g id="XMLID_955_">
							<path style="fill:#EEE4D9;" d="M251.474,174.395c-0.157,0-0.283-0.127-0.283-0.283v-39.414c0-0.157,0.127-0.283,0.283-0.283
								c0.156,0,0.283,0.127,0.283,0.283v39.414C251.757,174.268,251.63,174.395,251.474,174.395z"/>
						</g>
					</g>
					<g id="XMLID_965_">
						<path style="fill:#EEE4D9;" d="M259.517,174.395c-0.157,0-0.283-0.127-0.283-0.283V145.09c0-0.157,0.127-0.283,0.283-0.283
							c0.157,0,0.283,0.127,0.283,0.283v29.022C259.8,174.268,259.674,174.395,259.517,174.395z"/>
					</g>
				</g>
				<g id="XMLID_977_">
					<path id="XMLID_932_" style="fill:#9EBFD8;" d="M261.443,122.314c-24.379,0-23.683,0.29-23.683-0.678
						c0-3.052-0.199-3.841,0.678-3.841c24.379,0,23.683-0.29,23.683,0.678C262.121,121.526,262.32,122.314,261.443,122.314z"/>
					<path id="XMLID_952_" style="fill:#CC882A;" d="M271.019,128.819c-24.379,0-23.683,0.29-23.683-0.678
						c0-3.052-0.199-3.841,0.678-3.841c24.379,0,23.683-0.29,23.683,0.678C271.698,128.03,271.897,128.819,271.019,128.819z"/>
					<path id="XMLID_958_" style="fill:#D6723A;" d="M261.443,136.957c-6.556,0-7.088,0.226-7.088-0.678
						c0-3.052-0.199-3.841,0.678-3.841c6.556,0,7.088-0.226,7.088,0.678C262.121,136.168,262.32,136.957,261.443,136.957z"/>
					<path id="XMLID_969_" style="fill:#D6723A;" d="M284.628,128.819c-6.556,0-7.088,0.226-7.088-0.678
						c0-3.052-0.199-3.841,0.678-3.841c6.557,0,7.088-0.226,7.088,0.678C285.306,128.03,285.506,128.819,284.628,128.819z"/>
					<path id="XMLID_970_" style="fill:#D6723A;" d="M303.442,156.456c-6.556,0-7.088,0.226-7.088-0.678
						c0-3.052-0.199-3.841,0.678-3.841c6.556,0,7.088-0.226,7.088,0.678C304.12,155.667,304.32,156.456,303.442,156.456z"/>
					<path id="XMLID_971_" style="fill:#D6723A;" d="M314.739,156.456c-6.556,0-7.088,0.226-7.088-0.678
						c0-3.052-0.199-3.841,0.678-3.841c6.556,0,7.088-0.226,7.088,0.678v3.163C315.417,156.153,315.114,156.456,314.739,156.456z"/>
					<path id="XMLID_972_" style="fill:#D6723A;" d="M325.539,156.456c-6.556,0-7.088,0.226-7.088-0.678
						c0-3.052-0.199-3.841,0.678-3.841c6.556,0,7.088-0.226,7.088,0.678C326.217,155.667,326.416,156.456,325.539,156.456z"/>
					<path id="XMLID_974_" style="fill:#D6723A;" d="M280.745,184.722c-6.556,0-7.088,0.226-7.088-0.678
						c0-3.052-0.199-3.841,0.678-3.841c6.557,0,7.088-0.226,7.088,0.678C281.423,183.933,281.623,184.722,280.745,184.722z"/>
					<path id="XMLID_959_" style="fill:#D6723A;" d="M262.722,176.37c-6.556,0-7.088,0.226-7.088-0.678
						c0-3.052-0.199-3.841,0.678-3.841c6.556,0,7.088-0.226,7.088,0.678C263.4,175.582,263.599,176.37,262.722,176.37z"/>
					<path id="XMLID_960_" style="fill:#D6723A;" d="M262.722,166.697c-6.556,0-7.088,0.226-7.088-0.678
						c0-3.052-0.199-3.841,0.678-3.841c6.556,0,7.088-0.226,7.088,0.678C263.4,165.908,263.599,166.697,262.722,166.697z"/>
					<path id="XMLID_961_" style="fill:#D6723A;" d="M262.722,156.456c-6.556,0-7.088,0.226-7.088-0.678
						c0-3.052-0.199-3.841,0.678-3.841c6.556,0,7.088-0.226,7.088,0.678C263.4,155.667,263.599,156.456,262.722,156.456z"/>
					<path id="XMLID_963_" style="fill:#D6723A;" d="M262.722,147.349c-6.556,0-7.088,0.226-7.088-0.678
						c0-3.052-0.199-3.841,0.678-3.841c6.556,0,7.088-0.226,7.088,0.678C263.4,146.56,263.599,147.349,262.722,147.349z"/>
					<path id="XMLID_953_" style="fill:#CC882A;" d="M265.857,184.607c-18.902,0-18.521,0.289-18.521-0.678
						c0-3.052-0.199-3.841,0.678-3.841c18.902,0,18.521-0.289,18.521,0.678C266.536,183.818,266.735,184.607,265.857,184.607z"/>
					<path id="XMLID_939_" style="fill:#9EBFD8;" d="M250.795,191.013c-11.255,0-11.503,0.257-11.503-0.678
						c0-3.052-0.2-3.841,0.678-3.841c11.255,0,11.503-0.257,11.503,0.678C251.474,190.224,251.673,191.013,250.795,191.013z"/>
					<path id="XMLID_934_" style="fill:#CC882A;" d="M308.665,122.314c-44.667,0-42.484,0.313-42.484-0.678
						c0-3.052-0.199-3.841,0.678-3.841c44.667,0,42.484-0.313,42.484,0.678C309.343,121.526,309.542,122.314,308.665,122.314z"/>
					<path id="XMLID_966_" style="fill:#9EBFD8;" d="M309.02,166.697c-44.667,0-42.484,0.313-42.484-0.678
						c0-3.052-0.199-3.841,0.678-3.841c44.666,0,42.484-0.313,42.484,0.678C309.698,165.908,309.897,166.697,309.02,166.697z"/>
					<path id="XMLID_967_" style="fill:#9EBFD8;" d="M290.886,156.456c-25.372,0-24.351,0.289-24.351-0.678
						c0-3.052-0.199-3.841,0.678-3.841c25.372,0,24.351-0.289,24.351,0.678C291.565,155.667,291.764,156.456,290.886,156.456z"/>
					<path id="XMLID_968_" style="fill:#9EBFD8;" d="M309.02,147.349c-44.667,0-42.484,0.313-42.484-0.678
						c0-3.052-0.199-3.841,0.678-3.841c44.666,0,42.484-0.313,42.484,0.678C309.698,146.56,309.897,147.349,309.02,147.349z"/>
					<path id="XMLID_935_" style="fill:#CC882A;" d="M346.057,122.314c-29.809,0-28.809,0.301-28.809-0.678
						c0-3.052-0.199-3.841,0.678-3.841c29.809,0,28.809-0.301,28.809,0.678C346.735,121.526,346.935,122.314,346.057,122.314z"/>
				</g>
			</g>
		</g>
		<g id="XMLID_1038_">
			<g id="XMLID_907_">
				<g id="XMLID_918_">
					<path style="fill:#FFFFFF;" d="M422.724,240.489c-105.81,0-103.741,1.618-103.741-3.869c0-61.8-1.46-62.857,3.869-62.857
						c105.81,0,103.741-1.618,103.741,3.869C426.592,239.432,428.052,240.489,422.724,240.489z"/>
					<path style="fill:#EEE4D9;" d="M343.697,241.279c-18.767,0-23.091-0.341-24.604-1.858c-0.693-0.695-0.686-1.57-0.679-2.495
						l0.001-0.305c0-13.241-0.066-23.611-0.12-31.945c-0.149-23.276-0.184-28.807,1.668-30.672c0.743-0.748,1.706-0.807,2.887-0.807
						c24.206,0,42.388-0.083,56.997-0.15c37.834-0.173,44.65-0.204,46.633,1.784c0.693,0.695,0.686,1.569,0.679,2.495l-0.001,0.305
						c0,13.242,0.067,23.614,0.12,31.947c0.149,23.274,0.185,28.804-1.668,30.669c-0.743,0.748-1.706,0.807-2.887,0.807
						c-24.207,0-42.39,0.083-56.999,0.149C356.756,241.246,349.528,241.279,343.697,241.279z M401.613,174.108
						c-5.826,0-12.983,0.033-21.76,0.073c-14.61,0.067-32.793,0.15-57.002,0.15c-1.116,0-1.681,0.068-2.083,0.473
						c-1.521,1.531-1.475,8.671-1.339,29.866c0.054,8.335,0.12,18.707,0.12,31.952l-0.002,0.314
						c-0.006,0.872,0.006,1.343,0.349,1.687c1.648,1.653,11.006,1.609,45.824,1.451c14.611-0.067,32.794-0.15,57.004-0.15
						c1.116,0,1.681-0.068,2.083-0.473c1.521-1.53,1.475-8.67,1.339-29.863c-0.053-8.335-0.12-18.708-0.12-31.954l0.002-0.314
						c0.006-0.872-0.006-1.343-0.349-1.687C424.446,174.395,418.898,174.108,401.613,174.108z"/>
				</g>
				<g id="XMLID_915_">
					<path style="fill:#444244;" d="M426.592,177.08h-107.61c0-1.832,1.485-3.316,3.316-3.316
						C429.956,173.764,426.592,172.343,426.592,177.08z"/>
					<path style="fill:#444244;" d="M427.159,177.646H318.415v-0.566c0-2.141,1.742-3.883,3.883-3.883
						c25.018,0,44.372-0.078,58.503-0.135c37.36-0.152,44.094-0.178,45.817,1.577c0.579,0.59,0.563,1.326,0.547,2.036
						c-0.003,0.13-0.006,0.264-0.006,0.405V177.646z M319.607,176.513h106.428c0.01-0.564-0.008-0.86-0.225-1.081
						c-1.387-1.413-10.627-1.376-45.004-1.237c-14.132,0.057-33.487,0.135-58.507,0.135
						C320.976,174.33,319.869,175.268,319.607,176.513z"/>
				</g>
				<g id="XMLID_909_">
					<path id="XMLID_914_" style="fill:#BEC0C2;" d="M421.917,176.316c0.931,0,1.778,0.193,1.778-0.367
						c0-0.675,0.157-1.421-0.367-1.421c-0.931,0-1.778-0.193-1.778,0.367C421.55,175.57,421.393,176.316,421.917,176.316z"/>
					<g id="XMLID_910_">
						<g id="XMLID_913_">
							<path style="fill:#FFFFFF;" d="M421.997,176.226c-0.081,0-0.162-0.035-0.218-0.102c-0.1-0.12-0.084-0.299,0.036-0.399
								l1.251-1.043c0.12-0.1,0.298-0.084,0.399,0.036c0.1,0.12,0.084,0.299-0.036,0.399l-1.251,1.043
								C422.125,176.205,422.061,176.226,421.997,176.226z"/>
						</g>
						<g id="XMLID_911_">
							<path style="fill:#FFFFFF;" d="M423.248,176.226c-0.064,0-0.128-0.021-0.181-0.065l-1.251-1.043
								c-0.12-0.1-0.136-0.279-0.036-0.399c0.1-0.12,0.279-0.136,0.399-0.036l1.251,1.043c0.12,0.1,0.136,0.279,0.036,0.399
								C423.41,176.192,423.329,176.226,423.248,176.226z"/>
						</g>
					</g>
				</g>
			</g>
			<g id="XMLID_1017_">
				<g id="XMLID_984_">
					<path id="XMLID_983_" style="fill:#D6723A;" d="M329.946,185.307c-1.839,0-2.698,0.185-2.698-0.628v-2.07
						c0-0.347,0.281-0.628,0.628-0.628h2.07c0.347,0,0.628,0.281,0.628,0.628v2.07C330.573,185.026,330.292,185.307,329.946,185.307
						z"/>
					<path id="XMLID_982_" style="fill:#D6723A;" d="M329.946,192.62c-1.839,0-2.698,0.185-2.698-0.628
						c0-1.839-0.184-2.698,0.628-2.698h2.07c0.347,0,0.628,0.281,0.628,0.628v2.07C330.573,192.339,330.292,192.62,329.946,192.62z"
						/>
					<path id="XMLID_981_" style="fill:#D6723A;" d="M329.946,200.408c-1.839,0-2.698,0.184-2.698-0.628
						c0-1.839-0.184-2.698,0.628-2.698h2.07c0.347,0,0.628,0.281,0.628,0.628v2.07C330.573,200.126,330.292,200.408,329.946,200.408
						z"/>
					<path id="XMLID_980_" style="fill:#D6723A;" d="M329.946,206.789c-1.839,0-2.698,0.184-2.698-0.628
						c0-1.839-0.184-2.698,0.628-2.698h2.07c0.347,0,0.628,0.281,0.628,0.628v2.07C330.573,206.508,330.292,206.789,329.946,206.789
						z"/>
					<path id="XMLID_979_" style="fill:#D6723A;" d="M329.946,214.253c-1.839,0-2.698,0.184-2.698-0.628
						c0-1.839-0.184-2.698,0.628-2.698h2.07c0.347,0,0.628,0.281,0.628,0.628v2.07C330.573,213.972,330.292,214.253,329.946,214.253
						z"/>
				</g>
				<g id="XMLID_986_">
					<g id="XMLID_989_">
						<path style="fill:#EEE4D9;" d="M341.207,183.889h-8.699c-0.135,0-0.245-0.11-0.245-0.245c0-0.135,0.11-0.245,0.245-0.245
							h8.699c0.135,0,0.245,0.11,0.245,0.245C341.452,183.78,341.342,183.889,341.207,183.889z"/>
					</g>
					<g id="XMLID_988_">
						<path style="fill:#EEE4D9;" d="M341.207,232.517h-8.699c-0.135,0-0.245-0.11-0.245-0.246c0-0.136,0.11-0.246,0.245-0.246
							h8.699c0.135,0,0.245,0.11,0.245,0.246C341.452,232.407,341.342,232.517,341.207,232.517z"/>
					</g>
					<g id="XMLID_987_">
						<path style="fill:#EEE4D9;" d="M332.507,232.517c-0.135,0-0.245-0.11-0.245-0.246v-48.627c0-0.135,0.11-0.245,0.245-0.245
							c0.136,0,0.245,0.11,0.245,0.245v48.627C332.753,232.407,332.643,232.517,332.507,232.517z"/>
					</g>
				</g>
				<path id="XMLID_990_" style="fill:#9EBFD8;" d="M352.623,185.307h-12.687c-0.55,0-0.996-0.446-0.996-0.995v-1.334
					c0-0.55,0.446-0.995,0.996-0.995h12.687c0.55,0,0.996,0.446,0.996,0.995v1.334C353.618,184.861,353.173,185.307,352.623,185.307
					z"/>
				<path id="XMLID_999_" style="opacity:0.8;fill:#514342;" d="M401.676,185.307c-45.753,0-44.211,0.454-44.211-0.995v-1.334
					c0-0.55,0.446-0.995,0.996-0.995h43.216c0.55,0,0.996,0.446,0.996,0.995v1.334C402.672,184.861,402.226,185.307,401.676,185.307
					z"/>
				<path id="XMLID_1009_" style="opacity:0.8;fill:#514342;" d="M401.676,199.933H358.46c-0.55,0-0.996-0.446-0.996-0.995v-1.335
					c0-0.55,0.446-0.995,0.996-0.995c45.753,0,44.211-0.454,44.211,0.995C402.672,198.61,402.876,199.933,401.676,199.933z"/>
				<path id="XMLID_1011_" style="opacity:0.8;fill:#514342;" d="M401.676,214.559H358.46c-0.55,0-0.996-0.446-0.996-0.995v-1.334
					c0-0.55,0.446-0.995,0.996-0.995c45.753,0,44.211-0.454,44.211,0.995C402.672,213.236,402.876,214.559,401.676,214.559z"/>
				<path id="XMLID_1012_" style="opacity:0.8;fill:#514342;" d="M401.676,229.185c-45.753,0-44.211,0.454-44.211-0.995
					c0-1.007-0.205-2.33,0.996-2.33c45.753,0,44.211-0.454,44.211,0.995C402.672,227.862,402.876,229.185,401.676,229.185z"/>
				<path id="XMLID_992_" style="fill:#9EBFD8;" d="M352.623,192.62h-12.687c-0.55,0-0.996-0.446-0.996-0.995v-1.334
					c0-0.55,0.446-0.995,0.996-0.995h12.687c0.55,0,0.996,0.446,0.996,0.995v1.334C353.618,192.174,353.173,192.62,352.623,192.62z"
					/>
				<path id="XMLID_993_" style="fill:#9EBFD8;" d="M352.623,199.933h-12.687c-0.55,0-0.996-0.446-0.996-0.995v-1.335
					c0-0.55,0.446-0.995,0.996-0.995c13.23,0,13.683-0.362,13.683,0.995v1.335C353.618,199.487,353.173,199.933,352.623,199.933z"/>
				<path id="XMLID_995_" style="fill:#9EBFD8;" d="M352.623,207.246h-12.687c-0.55,0-0.996-0.446-0.996-0.995v-1.335
					c0-0.55,0.446-0.995,0.996-0.995h12.687c0.55,0,0.996,0.446,0.996,0.995v1.335C353.618,206.8,353.173,207.246,352.623,207.246z"
					/>
				<path id="XMLID_996_" style="fill:#9EBFD8;" d="M352.623,214.559h-12.687c-0.55,0-0.996-0.446-0.996-0.995v-1.334
					c0-0.55,0.446-0.995,0.996-0.995h12.687c0.55,0,0.996,0.446,0.996,0.995v1.334C353.618,214.113,353.173,214.559,352.623,214.559
					z"/>
				<path id="XMLID_997_" style="fill:#9EBFD8;" d="M352.623,221.872h-12.687c-0.55,0-0.996-0.446-0.996-0.995v-1.334
					c0-0.55,0.446-0.995,0.996-0.995h12.687c0.55,0,0.996,0.446,0.996,0.995v1.334C353.618,221.426,353.173,221.872,352.623,221.872
					z"/>
				<path id="XMLID_998_" style="fill:#9EBFD8;" d="M352.623,229.185c-13.23,0-13.683,0.362-13.683-0.995
					c0-1.007-0.205-2.33,0.996-2.33c13.23,0,13.683-0.362,13.683,0.995C353.618,227.862,353.823,229.185,352.623,229.185z"/>
				<path id="XMLID_1014_" style="fill:#9EBFD8;" d="M417.331,192.62c-13.23,0-13.683,0.362-13.683-0.995
					c0-1.007-0.205-2.33,0.996-2.33c13.23,0,13.683-0.362,13.683,0.995C418.326,191.297,418.531,192.62,417.331,192.62z"/>
				<path id="XMLID_1015_" style="fill:#9EBFD8;" d="M417.331,207.246c-13.23,0-13.683,0.362-13.683-0.995
					c0-1.007-0.205-2.33,0.996-2.33c13.23,0,13.683-0.362,13.683,0.995C418.326,205.923,418.531,207.246,417.331,207.246z"/>
				<path id="XMLID_1016_" style="fill:#9EBFD8;" d="M417.331,221.872c-13.23,0-13.683,0.362-13.683-0.995
					c0-1.007-0.205-2.33,0.996-2.33c13.23,0,13.683-0.362,13.683,0.995C418.326,220.549,418.531,221.872,417.331,221.872z"/>
			</g>
		</g>
		<g id="XMLID_1037_">
			<g id="XMLID_919_">
				<g id="XMLID_926_">
					<path style="fill:#FFFFFF;" d="M357.55,297.641c-122.924,0-120.464,1.862-120.464-4.492c0-71.67-1.682-72.989,4.492-72.989
						H357.55c2.481,0,4.492,2.011,4.492,4.492C362.042,296.322,363.723,297.641,357.55,297.641z"/>
					<path style="fill:#EEE4D9;" d="M265.91,298.463c-21.867,0-26.899-0.392-28.633-2.132c-0.775-0.777-0.767-1.769-0.759-2.82
						l0.002-0.362c0-15.281-0.076-27.277-0.137-36.917c-0.172-27.132-0.212-33.579,1.921-35.726c0.84-0.845,1.933-0.912,3.275-0.912
						H357.55c2.789,0,5.059,2.27,5.059,5.059c0,15.28,0.076,27.276,0.137,36.914c0.171,27.135,0.212,33.582-1.921,35.729
						c-0.84,0.845-1.933,0.912-3.275,0.912c-27.987,0-49.049,0.095-65.972,0.17C281.127,298.424,272.704,298.463,265.91,298.463z
						 M241.578,220.727c-1.312,0-1.98,0.083-2.471,0.578c-1.801,1.813-1.753,9.488-1.592,34.92
						c0.061,9.641,0.137,21.639,0.137,36.924l-0.002,0.371c-0.008,1.031,0.007,1.589,0.428,2.012
						c1.938,1.945,12.859,1.896,53.494,1.713c16.924-0.076,37.987-0.17,65.977-0.17c1.312,0,1.98-0.084,2.471-0.578
						c1.801-1.813,1.752-9.488,1.591-34.923c-0.061-9.64-0.137-21.638-0.137-36.921c0-2.164-1.761-3.925-3.926-3.925H241.578z"/>
				</g>
				<g id="XMLID_925_">
					<path style="fill:#444244;" d="M362.042,224.01H237.086c0-2.125,1.722-3.851,3.85-3.851
						C365.955,220.16,362.042,218.512,362.042,224.01z"/>
					<path style="fill:#444244;" d="M362.608,224.577H236.519v-0.567c0-2.436,1.982-4.417,4.417-4.417
						c29.038,0,51.505-0.09,67.91-0.157c43.373-0.175,51.188-0.206,53.16,1.804c0.645,0.657,0.627,1.454,0.608,2.297
						c-0.003,0.151-0.007,0.309-0.007,0.473V224.577z M237.702,223.444h123.783c0.015-0.72,0.002-1.117-0.286-1.41
						c-1.638-1.668-12.382-1.624-52.347-1.464c-16.406,0.066-38.875,0.157-67.915,0.157
						C239.319,220.727,237.971,221.902,237.702,223.444z"/>
				</g>
				<g id="XMLID_920_">
					<path id="XMLID_924_" style="fill:#BEC0C2;" d="M356.613,223.123h1.639c0.235,0,0.426-0.191,0.426-0.426v-1.224
						c0-0.235-0.191-0.426-0.426-0.426h-1.639c-0.235,0-0.426,0.191-0.426,0.426v1.224
						C356.187,222.932,356.378,223.123,356.613,223.123z"/>
					<g id="XMLID_362_">
						<g id="XMLID_363_">
							<path style="fill:#FFFFFF;" d="M356.706,222.974c-0.081,0-0.162-0.035-0.218-0.102c-0.1-0.12-0.084-0.299,0.036-0.399
								l1.453-1.211c0.12-0.101,0.299-0.084,0.399,0.036c0.1,0.12,0.084,0.299-0.036,0.399l-1.453,1.211
								C356.834,222.952,356.77,222.974,356.706,222.974z"/>
						</g>
						<g id="XMLID_922_">
							<path style="fill:#FFFFFF;" d="M358.158,222.974c-0.064,0-0.128-0.022-0.181-0.066l-1.453-1.211
								c-0.12-0.1-0.136-0.279-0.036-0.399c0.1-0.12,0.279-0.137,0.399-0.036l1.453,1.211c0.12,0.1,0.136,0.279,0.036,0.399
								C358.32,222.939,358.24,222.974,358.158,222.974z"/>
						</g>
					</g>
				</g>
			</g>
			<g id="XMLID_1036_">
				<path id="XMLID_1022_" style="fill:#9EBFD8;" d="M285.949,241.242c-32.96,0-31.982,0.355-31.982-0.786
					c0-2.709-0.231-3.732,0.786-3.732c32.96,0,31.982-0.355,31.982,0.786C286.735,240.219,286.967,241.242,285.949,241.242z"/>
				<path id="XMLID_1023_" style="fill:#9EBFD8;" d="M310.579,281.051c-59.118,0-56.612,0.485-56.612-1.043
					c0-1.893-0.307-3.475,1.043-3.475h55.569c0.576,0,1.043,0.467,1.043,1.043v2.432
					C311.623,280.584,311.156,281.051,310.579,281.051z"/>
				<g id="XMLID_1018_">
					<path id="XMLID_1025_" style="fill:#D6723A;" d="M249.804,241.294c-2.525,0-3.708,0.254-3.708-0.863
						c0-2.525-0.254-3.708,0.863-3.708c2.525,0,3.708-0.254,3.708,0.863C250.666,240.111,250.92,241.294,249.804,241.294z"/>
					<path id="XMLID_1024_" style="fill:#D6723A;" d="M249.804,251.345c-2.525,0-3.708,0.254-3.708-0.863
						c0-2.525-0.254-3.708,0.863-3.708c2.525,0,3.708-0.254,3.708,0.863C250.666,250.162,250.92,251.345,249.804,251.345z"/>
					<path id="XMLID_1021_" style="fill:#D6723A;" d="M249.804,262.048c-2.525,0-3.708,0.254-3.708-0.863
						c0-2.525-0.254-3.708,0.863-3.708c2.525,0,3.708-0.254,3.708,0.863C250.666,260.865,250.92,262.048,249.804,262.048z"/>
					<path id="XMLID_1020_" style="fill:#D6723A;" d="M249.804,270.818c-2.525,0-3.708,0.254-3.708-0.863
						c0-2.525-0.254-3.708,0.863-3.708c2.525,0,3.708-0.254,3.708,0.863C250.666,269.635,250.92,270.818,249.804,270.818z"/>
					<path id="XMLID_1019_" style="fill:#D6723A;" d="M249.804,281.077c-2.525,0-3.708,0.254-3.708-0.863
						c0-2.525-0.254-3.708,0.863-3.708c2.525,0,3.708-0.254,3.708,0.863C250.666,279.894,250.92,281.077,249.804,281.077z"/>
				</g>
				<path id="XMLID_1026_" style="opacity:0.8;fill:#514342;" d="M351.657,241.319c-62.709,0-60.682,0.632-60.682-1.375
					c0-1.446-0.276-3.246,1.375-3.246h59.307c0.759,0,1.375,0.616,1.375,1.375v1.871
					C353.032,240.704,352.416,241.319,351.657,241.319z"/>
				<path id="XMLID_1028_" style="fill:#9EBFD8;" d="M285.949,251.293c-32.96,0-31.982,0.355-31.982-0.786
					c0-2.709-0.231-3.732,0.786-3.732c32.96,0,31.982-0.355,31.982,0.787v2.946C286.735,250.941,286.383,251.293,285.949,251.293z"
					/>
				<path id="XMLID_1027_" style="opacity:0.8;fill:#514342;" d="M345.474,251.37c-56.415,0-54.499,0.569-54.499-1.304
					c0-1.581-0.283-3.317,1.304-3.317h53.195c0.72,0,1.304,0.584,1.304,1.304v2.013C346.778,250.786,346.194,251.37,345.474,251.37z
					"/>
				<path id="XMLID_1030_" style="fill:#9EBFD8;" d="M285.949,261.996c-32.96,0-31.982,0.355-31.982-0.787
					c0-2.709-0.231-3.732,0.786-3.732c32.96,0,31.982-0.355,31.982,0.786C286.735,260.973,286.967,261.996,285.949,261.996z"/>
				<path id="XMLID_1029_" style="opacity:0.8;fill:#514342;" d="M335.16,262.073c-45.488,0-44.185,0.507-44.185-1.176
					c0-1.787-0.305-3.445,1.175-3.445h43.01c0.649,0,1.175,0.526,1.175,1.176v2.27C336.335,261.547,335.809,262.073,335.16,262.073z
					"/>
				<path id="XMLID_1033_" style="opacity:0.8;fill:#514342;" d="M335.16,273.129c-45.488,0-44.185,0.507-44.185-1.175
					c0-1.787-0.305-3.445,1.175-3.445h43.01c0.649,0,1.175,0.526,1.175,1.175v2.27C336.335,272.602,335.809,273.129,335.16,273.129z
					"/>
				<path id="XMLID_1032_" style="fill:#9EBFD8;" d="M285.949,272.7c-32.96,0-31.982,0.355-31.982-0.786
					c0-2.709-0.231-3.732,0.786-3.732c32.96,0,31.982-0.355,31.982,0.787C286.735,271.677,286.967,272.7,285.949,272.7z"/>
				<path id="XMLID_1031_" style="opacity:0.8;fill:#514342;" d="M351.929,281.102c-39.434,0-38.273,0.471-38.273-1.095
					c0-1.986-0.283-3.526,1.095-3.526h37.178c0.605,0,1.095,0.49,1.095,1.095v2.431
					C353.024,280.612,352.533,281.102,351.929,281.102z"/>
			</g>
		</g>
	</g>
	<path id="XMLID_325_" style="fill:#E0DFEA;" d="M208.278,337.674c-92.744,0-92.611-27.719,0-27.719
		C301.025,309.955,300.885,337.674,208.278,337.674z"/>
	<g id="XMLID_44_">
		<path id="XMLID_315_" style="fill:#9E653B;" d="M167.283,323.434c-1.934-0.745-1.585,0.277,9.552-38.083l7.026,2.481
			l-14.555,34.739C168.625,324.198,166.716,323.216,167.283,323.434z"/>
		<path id="XMLID_317_" style="fill:#9E653B;" d="M247.277,322.752l-9.472-36.452l-7.094,2.28l13.564,35.137
			C244.992,325.574,247.769,324.646,247.277,322.752z"/>
		<g id="XMLID_41_">
			<path style="fill:#739086;" d="M163.407,289.789c-30.882-13.627-29.619-49.273-11.586-53.164
				c9.761-2.106,17.941,6.749,26.113,12.486c14.814,10.399,35.784,11.163,51.315,1.869c7.961-4.764,29.525-22.392,43.23-9.802
				c15.146,13.914-5.765,53.872-39.568,51.743C209.958,291.475,185.264,299.436,163.407,289.789z"/>
			<path style="fill:#457373;" d="M190.189,294.805c-9.182,0-18.27-1.075-26.849-4.862c-18.541-8.182-25.564-24.378-24.298-36.801
				c0.895-8.786,5.778-15.178,12.744-16.681c7.852-1.697,14.665,3.616,21.254,8.75c1.639,1.278,3.333,2.599,4.991,3.762
				c14.697,10.317,35.723,11.084,51.132,1.862c1.058-0.633,2.353-1.491,3.852-2.485c9.647-6.395,27.604-18.297,39.578-7.297
				c5.789,5.319,6.669,14.995,2.296,25.253c-3.216,7.544-8.784,14.371-15.678,19.223c-7.862,5.533-16.96,8.146-26.31,7.558
				c-7.971-0.501-16.305,0.144-24.364,0.768C202.463,294.328,196.305,294.805,190.189,294.805z M154.778,236.477
				c-0.96,0-1.932,0.099-2.922,0.313c-6.819,1.471-11.601,7.75-12.481,16.386c-1.253,12.302,5.712,28.346,24.099,36.459
				c14.216,6.275,29.884,5.06,45.036,3.887c8.071-0.626,16.417-1.274,24.411-0.769c20.289,1.276,35.819-12.881,41.658-26.577
				c4.315-10.124,3.467-19.655-2.214-24.874c-11.781-10.823-29.594,0.985-39.165,7.329c-1.503,0.996-2.8,1.856-3.865,2.494
				c-15.519,9.287-36.696,8.516-51.498-1.875c-1.665-1.169-3.363-2.493-5.005-3.772
				C167.145,241.043,161.286,236.477,154.778,236.477z"/>
		</g>
		<path id="XMLID_316_" style="fill:#457373;" d="M174.824,279.637c-23.024-10.16-22.083-36.736-8.638-39.637
			c7.277-1.57,13.376,5.032,19.469,9.309c11.045,7.753,26.679,8.323,38.259,1.393c5.935-3.552,22.013-16.695,32.23-7.308
			c11.293,10.374-4.298,40.165-29.5,38.578C209.531,280.894,191.12,286.83,174.824,279.637z"/>
		<g id="XMLID_42_">
			<path style="fill:#739086;" d="M157.955,218.915c-4.299-10.128-8.682-21.178-5.955-31.837
				c6.578-25.711,55.917-40.406,94.851-20.372c50.907,26.194-0.701,69.612-10.172,90.024c-3.074,6.625-4.335,9.193-13.947,9.573
				C167.838,268.469,173.645,255.88,157.955,218.915z"/>
			<path style="fill:#457373;" d="M211.899,266.703c-16.254,0-25.987-1.881-32.437-6.081c-7.774-5.062-10.848-13.345-15.501-25.884
				c-1.723-4.644-3.677-9.907-6.16-15.757c-3.722-8.769-8.82-20.779-5.963-31.945c2.409-9.413,10.535-17.655,22.883-23.207
				c21.691-9.753,50.034-8.683,72.208,2.727c12.125,6.239,19.361,14.027,21.505,23.148c3.999,17.012-9.773,35.751-20.839,50.807
				c-4.665,6.347-8.694,11.829-10.763,16.288c-3.047,6.566-4.308,9.284-14.093,9.67
				C218.834,266.624,215.229,266.703,211.899,266.703z M158.11,218.849c2.486,5.857,4.441,11.125,6.166,15.772
				c9.254,24.933,12.37,33.338,58.451,31.513c9.58-0.377,10.729-2.855,13.801-9.475c2.083-4.49,6.121-9.984,10.797-16.346
				c11.025-15.001,24.746-33.67,20.782-50.531c-2.121-9.021-9.298-16.735-21.332-22.927c-22.086-11.364-50.315-12.432-71.917-2.719
				c-12.252,5.509-20.312,13.671-22.695,22.984C149.335,198.175,154.406,210.124,158.11,218.849z"/>
		</g>
		<path id="XMLID_313_" style="fill:#457373;" d="M168.339,217.527c-3.442-8.11-6.952-16.958-4.768-25.493
			c5.267-20.588,44.775-32.354,75.95-16.313c40.763,20.974-0.561,55.74-8.145,72.084c-2.461,5.305-3.472,7.362-11.168,7.665
			C176.253,257.206,180.902,247.126,168.339,217.527z"/>
	</g>
	<g id="XMLID_58_">
		<g id="XMLID_23_">
			<path id="XMLID_1545_" style="fill:#FBA789;" d="M219.992,173.098c0.884,0.467,1.112,1.621,0.505,2.416
				c-6.68,8.747-22.375,5.34-27.462,0.214c-2.533-3.11,5.967-2.436,5.933-5.039c-0.144-11.141-1.252-11.57,1.926-11.772
				c2.865-0.182,7.347,0.454,10.064-0.516c0.525-0.187,0.823-1.535,1.079-0.281C213.203,163.833,214.862,170.39,219.992,173.098z"/>
			<path id="XMLID_897_" style="fill:#FBA789;" d="M201.349,167.934c8.289-3.746,12.665-10.667,13.775-19.389
				c1.436-11.285-2.886-14.281-9.895-15.173C182.443,130.473,191.047,172.591,201.349,167.934z"/>
			<path id="XMLID_893_" style="fill:#95563A;" d="M205.314,129.409c1.809-2.622,9.204-2.326,12.222,3.764
				c3.535,7.132-5.42,26.558-5.492,25.076c-0.171-3.527-0.598-13.636-3.962-21.188C207.324,135.361,204.009,131.3,205.314,129.409z"
				/>
			<path id="XMLID_871_" style="fill:#FBA789;" d="M213.46,150.652c2.773-8.187-3.853-11.153-2.307,2.026
				C211.576,156.285,213.045,151.876,213.46,150.652z"/>
			<path id="XMLID_1440_" style="fill:#382823;" d="M202.548,152.461c0.829,0.015,1.534-3.126-0.478-3.162
				C200.997,149.28,201.191,152.437,202.548,152.461z"/>
			<path id="XMLID_829_" style="fill:#382823;" d="M194.685,152.303c0.829,0.015,1.534-3.126-0.478-3.162
				C193.134,149.122,193.328,152.279,194.685,152.303z"/>
			<path id="XMLID_1421_" style="fill:#95563A;" d="M201.02,147.291c-0.33,0.169-0.258,0.668,0.106,0.739
				C211.277,150.018,207.031,144.216,201.02,147.291z"/>
			<path id="XMLID_943_" style="fill:#95563A;" d="M196.942,147.575c0.279,0.245,0.087,0.711-0.283,0.691
				C186.329,147.717,191.863,143.126,196.942,147.575z"/>
			<path id="XMLID_184_" style="fill:#95563A;" d="M201.636,141.357c-1.059,0.2-2.119-0.307-3.196-0.349
				c-2.23-0.088-6.623,3.105-8.203,0.209c-0.723-1.326,0.208-2.907,0.403-4.405c0.506-3.867-1.327-2.938,6.446-8.377
				c5.167-3.615,5.872-0.704,7.684-0.234c1.823,0.473,4.172-1.705,5.054,2.806c0.218,1.113,1.972,6.317,1.367,7.131
				c-0.509,0.685-1.117-0.08-1.857-0.476C204.956,135.32,205.268,140.751,201.636,141.357z"/>
			<g id="XMLID_923_">
				<g id="XMLID_831_">
					<path style="fill:#7D3B1A;" d="M207.553,135.903c-0.049,0-0.098-0.012-0.143-0.039c-2.303-1.351-3.381-4.371-2.454-6.874
						c0.054-0.147,0.217-0.222,0.364-0.167c0.147,0.054,0.222,0.217,0.167,0.364c-0.82,2.217,0.171,4.993,2.209,6.189
						c0.135,0.079,0.18,0.253,0.101,0.388C207.745,135.853,207.65,135.903,207.553,135.903z"/>
				</g>
				<g id="XMLID_832_">
					<path style="fill:#7D3B1A;" d="M214.45,131.992c-0.092,0-0.183-0.045-0.237-0.128c-2.043-3.125-6.108-2.62-7.731-1.674
						c-0.134,0.079-0.308,0.033-0.388-0.102c-0.079-0.135-0.033-0.309,0.102-0.388c2.153-1.255,6.416-1.318,8.49,1.853
						c0.086,0.131,0.049,0.307-0.082,0.392C214.557,131.977,214.503,131.992,214.45,131.992z"/>
				</g>
				<g id="XMLID_833_">
					<path style="fill:#7D3B1A;" d="M210.775,132.967c-0.073,0-0.146-0.028-0.202-0.084c-0.514-0.522-1.451-0.871-2.303-0.863
						c-0.385,0.007-0.917,0.093-1.262,0.466c-0.106,0.115-0.285,0.122-0.4,0.016c-0.115-0.106-0.122-0.285-0.016-0.4
						c0.381-0.413,0.958-0.637,1.669-0.649c1.001-0.017,2.091,0.398,2.716,1.031c0.11,0.111,0.109,0.291-0.003,0.401
						C210.918,132.939,210.847,132.967,210.775,132.967z"/>
				</g>
				<g id="XMLID_835_">
					<path style="fill:#7D3B1A;" d="M213.391,140.612c-0.134,0-0.254-0.096-0.278-0.233c-0.305-1.676-1.801-4.733-3.36-5.52
						c-0.456-0.23-0.871-0.247-1.269-0.052c-0.14,0.07-0.31,0.011-0.379-0.13c-0.069-0.14-0.011-0.31,0.129-0.379
						c0.56-0.275,1.156-0.257,1.773,0.055c1.869,0.943,3.378,4.358,3.663,5.924c0.028,0.154-0.074,0.301-0.228,0.329
						C213.425,140.611,213.408,140.612,213.391,140.612z"/>
				</g>
				<g id="XMLID_837_">
					<path style="fill:#7D3B1A;" d="M215.626,146.618c-0.024,0-0.048-0.003-0.073-0.009c-0.151-0.04-0.242-0.195-0.201-0.346
						c0.727-2.746,1.266-5.571,1.6-8.395c0.018-0.155,0.16-0.267,0.314-0.248c0.156,0.018,0.266,0.159,0.248,0.314
						c-0.337,2.851-0.88,5.702-1.614,8.474C215.865,146.535,215.751,146.618,215.626,146.618z"/>
				</g>
				<g id="XMLID_851_">
					<path style="fill:#7D3B1A;" d="M212.74,156.447c-0.05,0-0.101-0.013-0.147-0.041c-0.134-0.081-0.176-0.255-0.095-0.389
						c0.475-0.782,1.363-3.272,1.607-4.369c0.034-0.152,0.186-0.246,0.338-0.215c0.153,0.034,0.249,0.185,0.215,0.338
						c-0.258,1.16-1.168,3.704-1.676,4.54C212.929,156.399,212.836,156.447,212.74,156.447z"/>
				</g>
				<g id="XMLID_839_">
					<path style="fill:#7D3B1A;" d="M195.602,131.718c-0.14,0-0.262-0.105-0.281-0.248c-0.02-0.155,0.09-0.297,0.245-0.317
						c0.746-0.095,1.401-0.73,2.095-1.402c1.38-1.337,3.098-3.001,6.185-0.474c0.121,0.099,0.139,0.277,0.04,0.398
						c-0.099,0.121-0.277,0.139-0.399,0.04c-2.697-2.206-4.025-0.92-5.432,0.443c-0.764,0.74-1.485,1.439-2.418,1.558
						C195.626,131.717,195.614,131.718,195.602,131.718z"/>
				</g>
				<g id="XMLID_840_">
					<path style="fill:#7D3B1A;" d="M200.118,133.907c-0.13,0-0.267-0.012-0.413-0.039c-0.154-0.028-0.256-0.176-0.227-0.33
						c0.028-0.154,0.174-0.257,0.33-0.227c0.787,0.144,1.193-0.254,1.663-0.717c0.629-0.619,1.343-1.32,2.922-0.428
						c0.136,0.077,0.184,0.25,0.107,0.386c-0.077,0.136-0.251,0.183-0.386,0.107c-1.207-0.682-1.643-0.254-2.246,0.338
						C201.449,133.409,200.943,133.907,200.118,133.907z"/>
				</g>
				<g id="XMLID_843_">
					<path style="fill:#7D3B1A;" d="M200.41,139.184c-0.15,0-0.303-0.024-0.457-0.076c-0.148-0.05-0.227-0.211-0.177-0.359
						c0.05-0.148,0.211-0.227,0.359-0.177c0.855,0.29,1.831-0.903,2.693-1.955c0.828-1.01,1.607-1.961,2.43-1.864
						c0.155,0.019,0.266,0.16,0.247,0.316c-0.019,0.155-0.159,0.265-0.316,0.247c-0.508-0.069-1.229,0.813-1.924,1.661
						C202.41,138.019,201.454,139.184,200.41,139.184z"/>
				</g>
				<g id="XMLID_847_">
					<path style="fill:#7D3B1A;" d="M193.629,140.41c-0.402,0-0.816-0.124-1.185-0.366c-0.583-0.382-0.943-0.983-0.963-1.608
						c-0.022-0.68,0.267-1.232,0.573-1.816c0.374-0.713,0.797-1.522,0.806-2.81c0.001-0.157,0.119-0.302,0.285-0.281
						c0.157,0.001,0.283,0.129,0.281,0.285c-0.01,1.425-0.487,2.337-0.871,3.069c-0.293,0.561-0.525,1.004-0.508,1.535
						c0.014,0.441,0.279,0.872,0.707,1.152c0.429,0.281,0.93,0.35,1.339,0.187c0.145-0.059,0.31,0.013,0.368,0.158
						c0.058,0.145-0.013,0.31-0.158,0.368C194.09,140.368,193.862,140.41,193.629,140.41z"/>
				</g>
				<g id="XMLID_921_">
					<path style="fill:#7D3B1A;" d="M211.15,144.824c-0.129,0-0.245-0.088-0.275-0.219c-0.239-1.017,0.225-2.165,1.103-2.731
						c0.131-0.085,0.307-0.047,0.392,0.085c0.085,0.132,0.047,0.307-0.085,0.392c-0.683,0.44-1.044,1.334-0.858,2.125
						c0.036,0.152-0.059,0.305-0.211,0.341C211.193,144.821,211.172,144.824,211.15,144.824z"/>
				</g>
			</g>
			<path id="XMLID_230_" style="fill:#EC795C;" d="M198.289,171.915c-0.567,0.337,1.44,3.105,2.086,3.241
				c0.59,0.124,1.323-1.332,1.567-1.883c1.714-3.865,7.525-7.523,9.847-14.532c-3.248,6.052-9.397,8.696-12.876,9.314
				C198.914,170.346,199.292,171.32,198.289,171.915z"/>
			<path id="XMLID_625_" style="fill:#FFFFFF;" d="M195.609,161.28l5.576,0.001c1.008,0-3.098,4.966-5.766,0.321
				C195.338,161.46,195.445,161.28,195.609,161.28z"/>
			<g id="XMLID_50_">
				<path style="fill:#EC795C;" d="M198.909,157.599c-0.015,0-0.031-0.001-0.046-0.004l-0.463-0.073
					c-0.727-0.111-1.128-0.173-1.34-0.486c-0.231-0.34-0.124-0.809,0.111-1.835c0.18-0.783,0.425-1.855,0.67-3.438
					c0.024-0.154,0.165-0.258,0.323-0.236c0.154,0.024,0.26,0.169,0.236,0.323c-0.248,1.604-0.507,2.732-0.678,3.478
					c-0.167,0.728-0.287,1.254-0.195,1.39c0.074,0.109,0.464,0.168,0.957,0.244l0.469,0.074c0.154,0.025,0.259,0.171,0.234,0.325
					C199.166,157.501,199.045,157.599,198.909,157.599z"/>
			</g>
			<g id="XMLID_52_">
				<path style="fill:#EC795C;" d="M211.789,151.505c-0.158-0.001-0.284-0.128-0.283-0.285c0.002-0.394,0.227-0.82,0.465-1.272
					c0.454-0.861,0.923-1.752,0.131-2.619c-0.105-0.116-0.097-0.295,0.018-0.4c0.115-0.105,0.294-0.098,0.4,0.018
					c1.061,1.161,0.42,2.378-0.048,3.266c-0.205,0.389-0.398,0.756-0.4,1.011C212.072,151.379,211.945,151.505,211.789,151.505z"/>
			</g>
		</g>
		<g id="XMLID_16_">
			<path style="fill:#BE8F62;" d="M185.221,175.164c10.363-2.839,2.126,26.483-0.178,45.451c-2.085-0.124-8.435-2.343-9.947-3.998
				C175.096,216.617,175.055,177.949,185.221,175.164z"/>
			<path style="fill:#AD7446;" d="M185.292,220.914l-0.266-0.016c-2.017-0.12-8.531-2.33-10.14-4.089l-0.074-0.081v-0.11
				c-0.002-1.588,0.077-38.918,10.334-41.728c1.47-0.403,2.663-0.199,3.547,0.604c3.667,3.334,1.393,16.404-1.014,30.241
				c-0.885,5.087-1.801,10.348-2.355,14.913L185.292,220.914z M175.379,216.504c1.485,1.482,7.136,3.534,9.416,3.804
				c0.559-4.515,1.457-9.676,2.326-14.669c2.275-13.078,4.628-26.6,1.191-29.725c-0.741-0.674-1.728-0.831-3.016-0.477
				C175.721,178.06,175.39,214.189,175.379,216.504z"/>
		</g>
		<g id="XMLID_14_">
			<path style="fill:#BE8F62;" d="M198.289,171.915c5.353,5.822,17.575,3.067,19.206-0.687c5.207,2.353,5.655,2.818,10.769,4.883
				c3.103,20.181,9.146,45.829,2.763,64.075c-17.494,4.394-45.507,1.314-48.897-0.759c-2.006,1.262-2.305-46.314,3.091-64.263
				C185.221,175.164,195.619,172.116,198.289,171.915z"/>
			<path style="fill:#AD7446;" d="M208.992,242.689c-12.71,0-24.477-1.655-26.896-2.956c-0.103,0.013-0.211-0.018-0.303-0.09
				c-2.123-1.616-1.981-47.465,3.158-64.561l0.044-0.147l0.148-0.043c0.426-0.125,10.457-3.058,13.126-3.259l0.137-0.01l0.093,0.101
				c2.493,2.711,6.912,3.837,11.821,3.01c3.449-0.581,6.228-2.035,6.916-3.618l0.114-0.264l0.262,0.118
				c2.005,0.906,3.296,1.528,4.436,2.078c1.778,0.856,3.182,1.533,6.322,2.801l0.15,0.061l0.024,0.159
				c0.474,3.081,1.007,6.239,1.573,9.582c3.098,18.328,6.609,39.102,1.178,54.629l-0.051,0.144l-0.148,0.038
				C224.604,242.091,216.627,242.689,208.992,242.689z M182.129,239.093l0.15,0.092c3.352,2.051,31.162,5.068,48.532,0.763
				c5.311-15.375,1.825-35.999-1.252-54.204c-0.556-3.288-1.081-6.396-1.549-9.431c-3.052-1.236-4.448-1.908-6.206-2.755
				c-1.089-0.525-2.318-1.117-4.175-1.959c-0.925,1.648-3.762,3.112-7.214,3.694c-5.037,0.847-9.598-0.304-12.236-3.083
				c-2.622,0.264-11.473,2.818-12.728,3.183c-5.18,17.486-4.925,61.259-3.367,63.731L182.129,239.093z"/>
		</g>
		<g id="XMLID_15_">
			<path style="fill:#BE8F62;" d="M233.245,213.136c-12.472,3.464-22.997,8.668-25.414,10.378l2.509,10.612
				c39.739-7.092,38.981-10.681,39.173-15.753c0.302-7.958-12.389-39.92-21.25-42.263
				C226.098,175.538,232.51,211.15,233.245,213.136z"/>
			<path style="fill:#AD7446;" d="M210.126,234.452l-2.615-11.059l0.156-0.111c2.268-1.605,12.714-6.833,25.223-10.342
				c-1.027-3.824-6.698-35.118-5.026-36.959c0.126-0.138,0.298-0.19,0.471-0.145c5.621,1.486,11.835,13.909,14.246,19.181
				c4.264,9.326,7.366,19.371,7.214,23.366l-0.012,0.329c-0.172,5.06-0.297,8.715-39.395,15.692L210.126,234.452z M208.151,223.637
				l2.403,10.163c38.386-6.866,38.501-10.324,38.664-15.106l0.012-0.331c0.311-8.185-12.461-39.573-20.976-41.961
				c-1.133,1.81,4.133,33.601,5.256,36.636l0.107,0.289l-0.297,0.082C221.025,216.824,210.707,221.922,208.151,223.637z"/>
		</g>
		<path id="XMLID_45_" style="fill:#FBA789;" d="M170.923,194.002l-6.473,3.068c-2.624-9.229-2.39-9.463-3.858-9.972
			c-4.157-1.443-18.775-8.956-14.387-9.452c3.687-0.417,6.855,4.115,12.755,4.439c4.357,0.239,6.118,1.544,7.123,2.77
			C166.548,185.42,166.52,185.489,170.923,194.002z"/>
		<g id="XMLID_22_">
			<path style="fill:#EF7952;" d="M159.669,186.544c-0.036,0-0.074-0.007-0.109-0.022c-4.309-1.806-7.139-3.743-7.21-4.935
				c-0.016-0.276,0.109-0.504,0.352-0.641c1.025-0.582,4.004,0.56,7.244,2.774c0.129,0.088,0.162,0.264,0.074,0.394
				c-0.088,0.129-0.264,0.163-0.394,0.074c-3.937-2.69-6.177-3.013-6.645-2.749c-0.06,0.034-0.069,0.064-0.065,0.115
				c0.037,0.622,1.933,2.38,6.864,4.446c0.144,0.06,0.212,0.226,0.152,0.371C159.885,186.479,159.779,186.544,159.669,186.544z"/>
		</g>
		<g id="XMLID_35_">
			<path style="fill:#BE8F62;" d="M183.621,224.059c4.459-4.61-1.49-15.829-15.21-37.218l-6.925,3.739
				C162.442,195.005,175.328,232.633,183.621,224.059z"/>
			<path style="fill:#AD7446;" d="M180.969,225.609c-0.348,0-0.703-0.052-1.067-0.156c-8.243-2.351-17.874-31.023-18.693-34.814
				l-0.045-0.208l7.343-3.965l0.142,0.221c13.917,21.696,19.738,32.851,15.175,37.568l-0.204-0.197l0.204,0.197
				C182.954,225.157,181.997,225.609,180.969,225.609z M161.81,190.727c1.061,4.365,10.517,31.977,18.247,34.182
				c1.238,0.354,2.337,0.011,3.36-1.046c4.283-4.428-1.451-15.352-15.103-36.647L161.81,190.727z"/>
		</g>
		<g id="XMLID_74_">
			<path style="fill:#514342;" d="M193.203,281.39c-0.093-2.978-1.544-6.914-3.291-8.647c2.601-0.859,6.408-2.117,8.602-3.662
				c25.664-17.886,20.603-13.796,27.492-24.033c3.237-4.81,5.003-10.406,4.984-16.264c11.193,5.775,29.478,6.665,36.904,18.394
				C280.912,267.742,230.065,261.519,193.203,281.39z"/>
			<path style="fill:#463C3A;" d="M192.957,281.816l-0.013-0.418c-0.092-2.956-1.564-6.835-3.214-8.472l-0.299-0.297l0.4-0.132
				c2.537-0.838,6.371-2.104,8.534-3.628c2.447-1.705,4.613-3.21,6.538-4.546c15.257-10.597,15.257-10.597,18.484-15.71
				c0.619-0.98,1.389-2.201,2.404-3.71c3.251-4.829,4.959-10.403,4.941-16.118l-0.001-0.426l0.378,0.195
				c3.701,1.909,8.128,3.265,12.815,4.701c9.43,2.888,19.18,5.875,24.188,13.784c2.09,3.301,2.63,6.031,1.651,8.344
				c-2.404,5.68-13.904,8.081-28.463,11.12c-14.497,3.026-32.539,6.793-47.976,15.114L192.957,281.816z M190.377,272.861
				c1.56,1.783,2.867,5.232,3.063,8.108c15.423-8.222,33.339-11.962,47.756-14.971c14.411-3.008,25.794-5.384,28.092-10.816
				c0.908-2.146,0.381-4.718-1.612-7.866c-4.906-7.747-14.563-10.706-23.903-13.566c-4.553-1.395-8.863-2.714-12.526-4.546
				c-0.064,5.672-1.798,11.19-5.027,15.988c-1.011,1.503-1.779,2.719-2.396,3.697c-3.283,5.201-3.283,5.201-18.626,15.858
				c-1.924,1.337-4.091,2.841-6.536,4.545C196.545,270.784,192.933,272.016,190.377,272.861z"/>
		</g>
		<g id="XMLID_68_">
			<path id="XMLID_73_" style="fill:#FEAE65;" d="M193.203,281.39c-4.762,2.579-11.254,10.745-18.268,17.455
				c-0.858-1.274-2.54-2.665-4.145-2.991c5.044-7.565,3.156-5.711,5.124-12.626c6.765,0,10.607-2.531,10.35-9.277
				c1.221-0.416,2.45-0.814,3.648-1.207C191.66,274.477,193.11,278.415,193.203,281.39z"/>
			<path id="XMLID_72_" style="fill:#D16A4B;" d="M174.934,298.845c-2.736,2.611-5.128,4.538-6.671,4.824
				c-3.125,0.581-0.282-3.604,2.526-7.815C172.395,296.18,174.076,297.57,174.934,298.845z"/>
			<path id="XMLID_71_" style="fill:#FCBDA9;" d="M200.678,277.952c-2.158,0.904-5.429,2.335-7.475,3.438
				c-0.093-2.978-1.544-6.914-3.291-8.647c2.857-0.943,5.553-1.878,7.569-3.018C199.234,271.384,200.298,275.958,200.678,277.952z"
				/>
			<path id="XMLID_70_" style="fill:#FBA789;" d="M200.678,277.952c-2.158,0.904-5.429,2.335-7.475,3.438
				c-0.093-2.978-1.544-6.914-3.291-8.647c2.857-0.943,5.553-1.878,7.569-3.018C199.234,271.384,200.298,275.958,200.678,277.952z"
				/>
			<path id="XMLID_69_" style="fill:#D16A4B;" d="M175.918,283.228c1.79-6.349,4.577-7.305,10.346-9.277
				C186.516,280.573,182.414,283.368,175.918,283.228z"/>
		</g>
		<g id="XMLID_67_">
			<path style="fill:#514342;" d="M226.525,280.679c-17.19-8.359-90.493-6.438-83.223-29.026c2.665-8.294,32.78-14.255,38.49-17.527
				l8.95,6.325l-17.457,9.53c18.113,0.789,50.641,20.197,55.869,21.049C229.472,274.493,228.756,278.04,226.525,280.679z"/>
			<path style="fill:#463C3A;" d="M226.593,280.999l-0.181-0.088c-5.732-2.787-18.017-4.461-31.023-6.234
				c-21.413-2.918-45.684-6.225-51.529-15.507c-1.427-2.266-1.698-4.822-0.805-7.596c1.88-5.851,16.897-10.496,27.862-13.888
				c4.83-1.494,9.001-2.784,10.746-3.784l0.143-0.082l9.423,6.659l-17.031,9.297c12.475,0.93,30.986,9.891,43.333,15.868
				c5.619,2.72,10.057,4.869,11.663,5.13l0.197,0.032l0.018,0.199c0.356,3.872-0.599,7.367-2.689,9.839L226.593,280.999z
				 M181.776,234.431c-1.868,1.015-5.972,2.285-10.705,3.749c-10.857,3.358-25.725,7.957-27.523,13.552
				c-0.856,2.659-0.61,5.002,0.75,7.163c5.716,9.077,29.86,12.368,51.161,15.271c12.913,1.759,25.116,3.422,30.995,6.193
				c1.877-2.315,2.747-5.535,2.459-9.111c-1.802-0.391-5.949-2.398-11.607-5.137c-12.611-6.105-31.669-15.332-44.034-15.87
				l-0.927-0.04l17.908-9.776L181.776,234.431z"/>
		</g>
		<path id="XMLID_66_" style="opacity:0.4;fill:#463C3A;" d="M171.559,240.285c-3.876,4.996-12.445,7.417-13.478,7.408
			c0,0,8.414,0.78,13.113,3.298C175.893,253.509,171.559,240.285,171.559,240.285z"/>
		<g id="XMLID_61_">
			<path id="XMLID_65_" style="fill:#FEAE65;" d="M246.032,291.843c-1.756,0.245-4.359,1.07-4.359,2.835
				c-6.747-7.648-6.258-9.673-15.148-13.999c2.231-2.639,2.947-6.186,2.629-9.648c1.172,0.197,2.025,0.206,3.38,0.13
				c2.439,7.491,5.633,7.675,9.751,7.346C243.7,284.756,242.38,283.653,246.032,291.843z"/>
			<path id="XMLID_64_" style="fill:#D16A4B;" d="M242.285,278.506c-4.104,0.328-7.307,0.161-9.751-7.346
				C236.903,270.908,240.232,269.36,242.285,278.506z"/>
			<path id="XMLID_63_" style="fill:#FBA789;" d="M226.525,280.679c-2.588-1.259-5.394-2.312-6.483-2.611
				c2.161-2.054,3.333-6.507,3.536-9.188c3.726,1.813,3.946,1.885,5.575,2.151C229.472,274.493,228.756,278.04,226.525,280.679z"/>
			<path id="XMLID_62_" style="fill:#D16A4B;" d="M247.892,299.676c-1.744,0-5.047-3.69-6.192-4.999c0-1.763,2.596-2.59,4.359-2.835
				C247.923,296.006,249.685,299.676,247.892,299.676z"/>
		</g>
		<path id="XMLID_305_" style="opacity:0.4;fill:#463C3A;" d="M234.7,234.379c4.224,4.68,17.123,8.105,17.123,8.105
			c-10.124,1.143-11.04,1.539-16.067,3.653L234.7,234.379z"/>
		<g id="XMLID_56_">
			<path id="XMLID_60_" style="fill:#9C9FA0;" d="M236.243,259.493c-68.66,0-66.002,0.806-66.002-1.881
				c0-43.358-0.741-43.019,1.881-43.019c68.66,0,66.002-0.807,66.002,1.881v41.138C238.124,258.651,237.282,259.493,236.243,259.493
				z"/>
			<path id="XMLID_59_" style="fill:#72787A;" d="M204.183,241.076c-5.632,0-5.637-8.523,0-8.523
				C209.814,232.553,209.82,241.076,204.183,241.076z"/>
		</g>
		<path id="XMLID_491_" style="fill:#AD7446;" d="M206.824,188.479c2.459-1.182,4.341-4.065,8.142,0.505
			c12.831,15.428,1.651,14.027-0.42,15.012c-3.632,1.727-1.813,11.58-17.001,5.473c-5.415-2.177-1.318-4.726-1.042-7.015
			c0.497-4.12-6.728-5.491-3.256-10.147C196.606,187.802,202.529,190.544,206.824,188.479z"/>
	</g>
	<g id="XMLID_296_">
		<path id="XMLID_298_" style="fill:#E0DFEA;" d="M322.617,335.727c-46.934,0-46.866-14.027,0-14.027
			C369.552,321.7,369.481,335.727,322.617,335.727z"/>
		<g id="XMLID_273_">
			<path id="XMLID_275_" style="fill:#FEAE65;" d="M307.141,281.464c0.455-2.721,28.398-2.933,30.832-0.224
				C340.907,284.442,305.103,284.51,307.141,281.464z"/>
			<path id="XMLID_274_" style="fill:#FEAE65;" d="M322.597,304.025c-11.734,0-19.652-11.862-15.456-22.561
				c0.449-2.691,28.396-2.934,30.832-0.224c0.048,0.104,0.088,0.216,0.128,0.327C342.214,292.393,334.194,304.025,322.597,304.025z"
				/>
		</g>
		<path id="XMLID_297_" style="fill:#9E653B;" d="M323.094,283.49c-13.982,0-14.132-3.317,0-3.317
			C337.076,280.173,337.226,283.49,323.094,283.49z"/>
		<g id="XMLID_261_">
			<path id="XMLID_272_" style="fill:#76A699;" d="M324.164,273.718c-5.198-5.605-8.051-10.446-8.51-22.574
				c-0.425-11.232,9.993-18.448,13.555-3.567C332.78,262.502,324.241,274.433,324.164,273.718z"/>
			<path id="XMLID_271_" style="fill:#76A699;" d="M333.234,261.387c0.408-4.331,3.363-14.268,8.051-19.924
				c4.688-5.656,18.956-8.102,10.446,4.79C343.222,259.144,333.234,261.387,333.234,261.387z"/>
			<path id="XMLID_270_" style="fill:#76A699;" d="M330.482,273.107c9.18-19.205,33.45-15.526,27.772-6.828
				C354.229,272.444,330.482,273.107,330.482,273.107z"/>
			<path id="XMLID_269_" style="fill:#76A699;" d="M317.59,274.754c-3.525-25.354-27.866-30.683-21.742-15.627
				C301.044,271.902,320.539,275.43,317.59,274.754z"/>
			<g id="XMLID_262_">
				<g id="XMLID_267_">
					<path id="XMLID_268_" style="fill:#58857A;" d="M323.55,281.961c0,0,2.159-8.493-1.057-29.635
						c-0.08-0.527,0.715-0.642,0.794-0.121c0.035,0.231,3.474,23.12,0.789,29.542C323.991,281.948,323.758,282.048,323.55,281.961z"
						/>
				</g>
				<g id="XMLID_265_">
					<path id="XMLID_266_" style="fill:#58857A;" d="M323.614,281.941c-2.729-1.03,11.949-27.406,20.847-36.679
						c0.365-0.384,0.948,0.171,0.58,0.555c-1.148,1.197-16.767,20.97-20.383,33.669c8.319-11.785,17.802-14.221,17.994-12.853
						c0.03,0.219-0.123,0.422-0.343,0.453c-10.034,1.383-18.129,14.556-18.209,14.689
						C324.002,281.934,323.803,282.011,323.614,281.941z"/>
				</g>
				<g id="XMLID_263_">
					<path id="XMLID_264_" style="fill:#58857A;" d="M320.599,281.718c-0.726-2.782-7.229-15.28-18.629-21.697
						c-0.193-0.109-0.262-0.353-0.153-0.546c1.052-1.871,17.023,12.321,19.558,22.041c0.056,0.215-0.072,0.433-0.287,0.489
						C320.868,282.061,320.654,281.928,320.599,281.718z"/>
				</g>
			</g>
		</g>
		<path id="XMLID_260_" style="fill:#9E653B;" d="M339.642,297.902c2.688-1.175,0.934-3.909-0.87-3.098
			c-9.996,4.514-21.463,4.514-31.46,0c-0.805-0.362-1.75-0.005-2.113,0.798c-0.75,1.664,1.14,2.255,1.734,2.505
			c-12.876,30.539-13.426,30.294-11.401,31.148c2.027,0.856,1.47,0.625,14.387-30.011c3.838,1.282,7.818,1.978,11.814,2.104v29.629
			c0,2.11,3.193,2.112,3.193,0v-29.644c3.977-0.181,7.931-0.942,11.74-2.268c13.321,31.593,12.34,30.317,13.842,30.317
			c0.207,0,0.417-0.041,0.62-0.126C353.156,328.402,352.609,328.656,339.642,297.902z"/>
		<g id="XMLID_257_">
			<path id="XMLID_259_" style="fill:#7F5030;" d="M318.9,282.095c-0.498-0.101-1.01,0.024-1.111,0.099
				c-0.176,0.129-0.43,0.1-0.562-0.073c-0.611-0.79,1.723-1.277,2.697-0.403c0.714-0.438,2.5-1.273,4.444-0.14
				c1.829-1.015,3.589,0.264,3.104,0.815c-0.147,0.167-0.4,0.181-0.567,0.035c-1.048-0.924-2.253-0.088-2.304-0.05
				c-0.134,0.095-0.313,0.1-0.453,0.008c-2.108-1.382-4.023,0.164-4.042,0.178C319.715,282.889,319.452,282.208,318.9,282.095z"/>
		</g>
		<g id="XMLID_138_">
			<path id="XMLID_139_" style="fill:#D16A4B;" d="M309.192,282.325c-0.465-0.256-0.079-0.961,0.387-0.703
				c5.197,2.857,21.618,2.826,27.034-0.054c0.196-0.103,0.439-0.029,0.543,0.166c0.104,0.196,0.03,0.439-0.166,0.543
				C331.425,285.235,314.537,285.266,309.192,282.325z"/>
		</g>
	</g>
	<g id="XMLID_726_">
		<g id="XMLID_361_">
			<path style="fill:#FFFFFF;" d="M68.122,119.493h82.112c9.863,0,17.858,7.995,17.858,17.858v9.704
				c0,9.015-7.308,16.323-16.323,16.323c-0.726,0-1.211,0.74-0.924,1.407c1.309,3.045,2.577,6.144,4.038,8.988
				c2.277,4.433-10.419-2.316-14.811-4.841c-12.171-6.995-16.408-5.554-71.95-5.554c-7.804,0-14.13-6.327-14.13-14.131v-15.624
				C53.992,125.82,60.318,119.493,68.122,119.493z"/>
			<path style="fill:#EEE4D9;" d="M154.329,175.767c-3.126,0-10.964-4.289-14.54-6.344c-10-5.748-14.305-5.726-47.803-5.554
				c-6.826,0.035-14.563,0.075-23.864,0.075c-8.104,0-14.697-6.593-14.697-14.697v-15.624c0-8.104,6.593-14.697,14.697-14.697
				h82.112c10.159,0,18.424,8.265,18.424,18.424v9.704c0,9.313-7.576,16.889-16.889,16.889c-0.215,0-0.329,0.138-0.368,0.197
				c-0.04,0.06-0.122,0.22-0.036,0.419l0.683,1.597c1.053,2.471,2.142,5.025,3.339,7.356c0.444,0.865,0.445,1.518,0.003,1.94
				C155.163,175.67,154.799,175.767,154.329,175.767z M104.938,162.69c21.695,0,26.673,0.726,35.416,5.751
				c6.85,3.937,13.363,6.762,14.251,6.194c-0.015-0.009-0.01-0.183-0.226-0.603c-1.215-2.367-2.312-4.941-3.373-7.43l-0.681-1.593
				c-0.21-0.489-0.161-1.046,0.131-1.49c0.292-0.443,0.783-0.707,1.314-0.707c8.688,0,15.756-7.068,15.756-15.756v-9.704
				c0-9.534-7.757-17.291-17.291-17.291H68.122c-7.479,0-13.564,6.085-13.564,13.564v15.624c0,7.479,6.085,13.564,13.564,13.564
				c9.298,0,17.033-0.04,23.858-0.075C96.877,162.712,101.161,162.69,104.938,162.69z"/>
		</g>
		<g id="XMLID_724_">
			<path id="XMLID_360_" style="fill:#444244;" d="M155.304,130.876c1.44,0,2.114,0.145,2.114-0.492c0-1.44,0.145-2.115-0.492-2.115
				c-1.44,0-2.114-0.145-2.114,0.492C154.812,130.202,154.668,130.876,155.304,130.876z"/>
			<path id="XMLID_359_" style="fill:#CC882A;" d="M136.093,130.876h11.036c1.735,0,1.713-2.606,0-2.606h-11.036
				c-1.512,0-1.303,1.87-1.303,1.303C134.79,130.293,135.373,130.876,136.093,130.876z"/>
			<path id="XMLID_629_" style="fill:#9EBFD8;" d="M95.716,130.876h31.524c1.734,0,1.713-2.606,0-2.606H95.716
				c-1.512,0-1.303,1.87-1.303,1.303C94.412,130.293,94.996,130.876,95.716,130.876z"/>
			<path id="XMLID_633_" style="fill:#444244;" d="M85.543,130.876c1.448,0,2.288,0.202,2.288-0.318
				c0-1.448,0.202-2.288-0.318-2.288c-1.448,0-2.288-0.202-2.288,0.318C85.225,130.036,85.023,130.876,85.543,130.876z"/>
			<path id="XMLID_637_" style="fill:#D6723A;" d="M68.166,130.876h10.25c1.735,0,1.713-2.606,0-2.606h-10.25
				c-1.512,0-1.303,1.87-1.303,1.303C66.863,130.293,67.447,130.876,68.166,130.876z"/>
			<path id="XMLID_642_" style="fill:#444244;" d="M154.641,137.2c1.44,0,2.114,0.145,2.114-0.492c0-1.44,0.145-2.115-0.492-2.115
				c-1.44,0-2.114-0.145-2.114,0.492C154.149,136.525,154.004,137.2,154.641,137.2z"/>
			<path id="XMLID_641_" style="fill:#CC882A;" d="M135.429,137.2h11.036c1.735,0,1.713-2.606,0-2.606h-11.036
				c-1.512,0-1.303,1.87-1.303,1.303C134.126,136.616,134.71,137.2,135.429,137.2z"/>
			<path id="XMLID_640_" style="fill:#9EBFD8;" d="M95.052,137.2h31.524c1.734,0,1.713-2.606,0-2.606H95.052
				c-1.512,0-1.303,1.87-1.303,1.303C93.749,136.616,94.332,137.2,95.052,137.2z"/>
			<path id="XMLID_639_" style="fill:#444244;" d="M84.88,137.2c1.448,0,2.288,0.202,2.288-0.318c0-1.448,0.202-2.288-0.318-2.288
				c-1.448,0-2.288-0.202-2.288,0.318C84.561,136.359,84.36,137.2,84.88,137.2z"/>
			<path id="XMLID_638_" style="fill:#D6723A;" d="M67.503,137.2h10.25c1.734,0,1.713-2.606,0-2.606h-10.25
				c-1.512,0-1.303,1.87-1.303,1.303C66.2,136.616,66.783,137.2,67.503,137.2z"/>
			<path id="XMLID_647_" style="fill:#444244;" d="M153.977,143.523c1.44,0,2.114,0.145,2.114-0.492c0-1.44,0.145-2.115-0.492-2.115
				c-1.44,0-2.114-0.145-2.114,0.492C153.486,142.849,153.341,143.523,153.977,143.523z"/>
			<path id="XMLID_646_" style="fill:#CC882A;" d="M134.766,143.523h11.036c1.735,0,1.713-2.606,0-2.606h-11.036
				c-1.512,0-1.303,1.87-1.303,1.303C133.463,142.939,134.046,143.523,134.766,143.523z"/>
			<path id="XMLID_645_" style="fill:#9EBFD8;" d="M94.389,143.523h31.524c1.735,0,1.713-2.606,0-2.606H94.389
				c-1.512,0-1.303,1.87-1.303,1.303C93.086,142.939,93.669,143.523,94.389,143.523z"/>
			<path id="XMLID_644_" style="fill:#444244;" d="M84.216,143.523c1.447,0,2.288,0.202,2.288-0.318
				c0-1.448,0.202-2.288-0.318-2.288c-1.448,0-2.288-0.202-2.288,0.318C83.898,142.682,83.696,143.523,84.216,143.523z"/>
			<path id="XMLID_643_" style="fill:#D6723A;" d="M66.84,143.523h10.25c1.734,0,1.713-2.606,0-2.606H66.84
				c-1.512,0-1.303,1.87-1.303,1.303C65.536,142.939,66.12,143.523,66.84,143.523z"/>
			<path id="XMLID_358_" style="fill:#444244;" d="M153.314,149.846c1.44,0,2.115,0.145,2.115-0.492c0-1.44,0.145-2.114-0.492-2.114
				c-1.44,0-2.115-0.145-2.115,0.492C152.822,149.172,152.677,149.846,153.314,149.846z"/>
			<path id="XMLID_357_" style="fill:#CC882A;" d="M134.102,149.846h11.036c1.735,0,1.713-2.606,0-2.606h-11.036
				c-1.512,0-1.303,1.87-1.303,1.303C132.799,149.263,133.383,149.846,134.102,149.846z"/>
			<path id="XMLID_650_" style="fill:#9EBFD8;" d="M93.725,149.846h31.524c1.735,0,1.713-2.606,0-2.606H93.725
				c-1.512,0-1.303,1.87-1.303,1.303C92.422,149.263,93.006,149.846,93.725,149.846z"/>
			<path id="XMLID_649_" style="fill:#444244;" d="M83.553,149.846c1.448,0,2.288,0.202,2.288-0.318
				c0-1.448,0.202-2.288-0.318-2.288c-1.447,0-2.288-0.202-2.288,0.318C83.235,149.006,83.033,149.846,83.553,149.846z"/>
			<path id="XMLID_648_" style="fill:#D6723A;" d="M66.176,149.846h10.25c1.734,0,1.713-2.606,0-2.606h-10.25
				c-1.512,0-1.303,1.87-1.303,1.303C64.873,149.263,65.456,149.846,66.176,149.846z"/>
			<path id="XMLID_723_" style="fill:#444244;" d="M152.651,156.169c1.44,0,2.114,0.145,2.114-0.492c0-1.44,0.145-2.115-0.492-2.115
				c-1.44,0-2.115-0.145-2.115,0.492C152.159,155.495,152.014,156.169,152.651,156.169z"/>
			<path id="XMLID_722_" style="fill:#CC882A;" d="M133.439,156.169h11.036c1.734,0,1.713-2.606,0-2.606h-11.036
				c-1.512,0-1.303,1.87-1.303,1.303C132.136,155.586,132.719,156.169,133.439,156.169z"/>
			<path id="XMLID_356_" style="fill:#9EBFD8;" d="M93.062,156.169h31.524c1.735,0,1.713-2.606,0-2.606H93.062
				c-1.512,0-1.303,1.87-1.303,1.303C91.759,155.586,92.342,156.169,93.062,156.169z"/>
			<path id="XMLID_355_" style="fill:#444244;" d="M82.889,156.169c1.448,0,2.288,0.202,2.288-0.318
				c0-1.448,0.202-2.288-0.318-2.288c-1.448,0-2.288-0.202-2.288,0.318C82.571,155.329,82.37,156.169,82.889,156.169z"/>
			<path id="XMLID_353_" style="fill:#D6723A;" d="M65.513,156.169h10.25c1.735,0,1.713-2.606,0-2.606h-10.25
				c-1.512,0-1.303,1.87-1.303,1.303C64.21,155.586,64.793,156.169,65.513,156.169z"/>
		</g>
	</g>
	<g id="XMLID_377_">
		<g id="XMLID_789_">
			<g id="XMLID_793_">
				<path style="fill:#D2E8EF;" d="M67.191,259.493c-8,0-11.487,0.737-11.487-2.648c0-8-0.737-11.487,2.648-11.487
					c8,0,11.487-0.737,11.487,2.648C69.839,256.006,70.576,259.493,67.191,259.493z"/>
				<path style="fill:#9EBFD8;" d="M61.158,260.127c-2.618,0-4.307-0.175-5.241-1.093c-0.524-0.516-0.779-1.232-0.779-2.19
					c0-1.331-0.021-2.537-0.039-3.623c-0.068-4.027-0.11-6.458,1.064-7.651c0.516-0.525,1.232-0.779,2.19-0.779
					c1.331,0,2.537-0.021,3.622-0.039c4.029-0.069,6.458-0.11,7.652,1.064c0.524,0.516,0.779,1.232,0.779,2.19
					c0,1.331,0.021,2.537,0.039,3.622c0.068,4.027,0.11,6.458-1.064,7.652c-0.516,0.525-1.232,0.78-2.19,0.78
					c-1.331,0-2.537,0.02-3.622,0.039C62.69,260.113,61.888,260.127,61.158,260.127z M64.404,245.856
					c-0.728,0-1.533,0.014-2.41,0.028c-1.091,0.019-2.303,0.039-3.641,0.039c-0.85,0-1.196,0.252-1.382,0.44
					c-0.84,0.855-0.8,3.235-0.739,6.838c0.019,1.091,0.039,2.304,0.039,3.642c0,0.85,0.252,1.196,0.441,1.382
					c0.855,0.84,3.235,0.798,6.838,0.739c1.091-0.019,2.303-0.039,3.641-0.039c0.85,0,1.196-0.252,1.382-0.44
					c0.841-0.855,0.8-3.235,0.739-6.838c-0.019-1.091-0.039-2.303-0.039-3.642c0-0.85-0.251-1.196-0.441-1.382
					C68.185,245.988,66.665,245.856,64.404,245.856z"/>
			</g>
			<g id="XMLID_790_">
				<g id="XMLID_792_">
					<path style="fill:#FEFFFF;" d="M66.894,257.046c-0.128,0-0.255-0.049-0.353-0.146l-8.245-8.244
						c-0.195-0.195-0.195-0.511,0-0.706c0.195-0.195,0.511-0.195,0.705,0l8.244,8.244c0.195,0.195,0.195,0.511,0,0.706
						C67.149,256.997,67.021,257.046,66.894,257.046z"/>
				</g>
				<g id="XMLID_791_">
					<path style="fill:#FEFFFF;" d="M58.649,257.046c-0.128,0-0.255-0.049-0.353-0.146c-0.195-0.195-0.195-0.511,0-0.706
						l8.245-8.244c0.195-0.195,0.511-0.194,0.705,0c0.195,0.195,0.195,0.511,0,0.706l-8.244,8.244
						C58.904,256.997,58.777,257.046,58.649,257.046z"/>
				</g>
			</g>
		</g>
		<g id="XMLID_785_">
			<path style="fill:#9EBFD8;" d="M59.259,253.827c-8,0-11.487,0.737-11.487-2.648c0-8-0.737-11.487,2.648-11.487
				c8,0,11.487-0.737,11.487,2.648C61.907,250.34,62.644,253.827,59.259,253.827z"/>
			<path style="fill:#D2E8EF;" d="M53.226,254.461c-2.618,0-4.308-0.175-5.241-1.093c-0.524-0.516-0.779-1.232-0.779-2.19
				c0-1.331-0.021-2.537-0.039-3.623c-0.068-4.027-0.11-6.458,1.064-7.651c0.516-0.525,1.232-0.779,2.19-0.779
				c1.331,0,2.537-0.021,3.622-0.039c4.028-0.068,6.458-0.11,7.652,1.064c0.524,0.516,0.779,1.232,0.779,2.19
				c0,1.331,0.021,2.537,0.039,3.622c0.068,4.027,0.11,6.458-1.064,7.652c-0.516,0.524-1.232,0.78-2.19,0.78
				c-1.331,0-2.537,0.02-3.622,0.039C54.759,254.447,53.956,254.461,53.226,254.461z M56.472,240.191
				c-0.728,0-1.533,0.014-2.41,0.028c-1.091,0.019-2.303,0.039-3.641,0.039c-0.85,0-1.196,0.252-1.382,0.44
				c-0.84,0.855-0.8,3.235-0.739,6.838c0.019,1.091,0.039,2.304,0.039,3.642c0,0.85,0.251,1.196,0.441,1.382
				c0.855,0.84,3.235,0.797,6.838,0.739c1.091-0.019,2.303-0.039,3.641-0.039c0.85,0,1.196-0.252,1.382-0.44
				c0.841-0.855,0.8-3.236,0.739-6.838c-0.019-1.091-0.039-2.303-0.039-3.642c0-0.85-0.251-1.196-0.441-1.382
				C60.253,240.322,58.733,240.191,56.472,240.191z"/>
		</g>
		<path id="XMLID_783_" style="fill:#FEFFFF;" d="M54.953,249.363c-0.093-0.047-2.474,1.292-2.382,1.242
			c-0.389,0.213,0.275-3.046,0.219-2.681c0.016-0.103-1.993-1.953-1.917-1.882c-0.323-0.305,2.982-0.679,2.617-0.62
			c0.103-0.017,1.242-2.499,1.197-2.405c0.19-0.401,1.567,2.626,1.399,2.297c0.048,0.092,2.76,0.409,2.657,0.396
			c0.44,0.057-2.013,2.302-1.753,2.04c-0.073,0.074,0.464,2.752,0.445,2.649C57.517,250.836,54.623,249.197,54.953,249.363z"/>
	</g>
	<g id="XMLID_483_">
		<g id="XMLID_486_">
			<g id="XMLID_490_">
				<path style="fill:#D2E8EF;" d="M389.515,280.544c8,0,11.487,0.737,11.487-2.648c0-8,0.737-11.487-2.648-11.487
					c-8,0-11.487-0.737-11.487,2.648C386.866,277.057,386.129,280.544,389.515,280.544z"/>
				<path style="fill:#9EBFD8;" d="M395.548,281.178c-0.73,0-1.533-0.014-2.411-0.029c-1.085-0.018-2.291-0.039-3.622-0.039
					c-0.958,0-1.674-0.255-2.19-0.78c-1.174-1.193-1.133-3.625-1.064-7.652c0.018-1.085,0.039-2.291,0.039-3.622
					c0-0.958,0.255-1.674,0.779-2.189c1.194-1.174,3.624-1.133,7.652-1.064c1.085,0.018,2.291,0.039,3.623,0.039
					c0.958,0,1.674,0.255,2.19,0.78c1.174,1.193,1.133,3.624,1.064,7.652c-0.018,1.086-0.039,2.291-0.039,3.622
					c0,0.958-0.255,1.674-0.779,2.19C399.856,281.003,398.165,281.178,395.548,281.178z M392.301,266.908
					c-2.261,0-3.781,0.132-4.428,0.767c-0.189,0.186-0.441,0.532-0.441,1.382c0,1.338-0.02,2.55-0.039,3.641
					c-0.061,3.603-0.102,5.984,0.739,6.839c0.186,0.189,0.532,0.441,1.382,0.441c1.338,0,2.55,0.02,3.641,0.039
					c3.602,0.059,5.984,0.101,6.839-0.739c0.189-0.186,0.441-0.532,0.441-1.382c0-1.338,0.021-2.551,0.039-3.642
					c0.061-3.603,0.102-5.983-0.739-6.838c-0.186-0.189-0.531-0.44-1.382-0.44c-1.338,0-2.551-0.021-3.642-0.039
					C393.834,266.921,393.029,266.908,392.301,266.908z"/>
			</g>
			<g id="XMLID_487_">
				<g id="XMLID_489_">
					<path style="fill:#FEFFFF;" d="M389.811,278.097c-0.128,0-0.255-0.049-0.353-0.146c-0.195-0.195-0.195-0.511,0-0.706
						l8.245-8.245c0.195-0.195,0.511-0.195,0.706,0c0.195,0.195,0.195,0.511,0,0.706l-8.245,8.245
						C390.067,278.049,389.939,278.097,389.811,278.097z"/>
				</g>
				<g id="XMLID_488_">
					<path style="fill:#FEFFFF;" d="M398.056,278.097c-0.128,0-0.255-0.049-0.353-0.146l-8.245-8.245
						c-0.195-0.195-0.195-0.511,0-0.706c0.195-0.195,0.511-0.195,0.706,0l8.245,8.245c0.195,0.195,0.195,0.511,0,0.706
						C398.312,278.049,398.184,278.097,398.056,278.097z"/>
				</g>
			</g>
		</g>
		<g id="XMLID_485_">
			<path style="fill:#9EBFD8;" d="M397.446,274.878c8,0,11.487,0.737,11.487-2.648c0-8,0.737-11.487-2.648-11.487
				c-8,0-11.487-0.737-11.487,2.648C394.798,271.391,394.061,274.878,397.446,274.878z"/>
			<path style="fill:#D2E8EF;" d="M403.479,275.513c-0.73,0-1.533-0.014-2.411-0.029c-1.085-0.018-2.291-0.039-3.622-0.039
				c-0.958,0-1.674-0.255-2.19-0.78c-1.174-1.193-1.132-3.625-1.064-7.652c0.019-1.086,0.039-2.291,0.039-3.622
				c0-0.958,0.255-1.674,0.779-2.189c1.194-1.174,3.624-1.132,7.652-1.064c1.085,0.018,2.291,0.039,3.622,0.039
				c0.958,0,1.674,0.255,2.19,0.78c1.174,1.193,1.133,3.624,1.064,7.652c-0.018,1.086-0.039,2.291-0.039,3.622
				c0,0.958-0.255,1.674-0.779,2.19C407.787,275.338,406.097,275.513,403.479,275.513z M400.233,261.242
				c-2.262,0-3.781,0.132-4.428,0.767c-0.189,0.186-0.441,0.532-0.441,1.382c0,1.338-0.02,2.55-0.039,3.641
				c-0.061,3.603-0.102,5.984,0.739,6.839c0.186,0.189,0.532,0.441,1.382,0.441c1.338,0,2.55,0.021,3.641,0.039
				c3.602,0.059,5.984,0.101,6.839-0.739c0.189-0.186,0.441-0.532,0.441-1.382c0-1.338,0.021-2.55,0.039-3.642
				c0.061-3.603,0.102-5.983-0.739-6.838c-0.186-0.189-0.531-0.44-1.382-0.44c-1.338,0-2.551-0.021-3.642-0.039
				C401.766,261.256,400.961,261.242,400.233,261.242z"/>
		</g>
		<path id="XMLID_484_" style="fill:#FEFFFF;" d="M401.752,270.414c0.093-0.047,2.473,1.292,2.382,1.242
			c0.389,0.213-0.275-3.046-0.219-2.681c-0.016-0.103,1.993-1.953,1.917-1.882c0.323-0.305-2.982-0.679-2.617-0.62
			c-0.103-0.017-1.242-2.499-1.197-2.405c-0.19-0.401-1.567,2.626-1.399,2.297c-0.047,0.092-2.76,0.409-2.657,0.395
			c-0.44,0.057,2.013,2.302,1.753,2.04c0.073,0.074-0.464,2.752-0.445,2.65C399.188,271.887,402.082,270.248,401.752,270.414z"/>
	</g>
	<g id="XMLID_367_">
		<g id="XMLID_546_">
			<path style="fill:#FFFFFF;" d="M133.114,235.22c-72.291,0-69.269,0.807-69.269-1.883c0-59.253-0.802-57.517,1.883-57.517
				c72.291,0,69.269-0.807,69.269,1.883C134.996,236.956,135.799,235.22,133.114,235.22z"/>
			<path style="fill:#EEE4D9;" d="M79.389,235.9c-12.819,0-14.98-0.185-15.783-1.025c-0.379-0.396-0.356-0.872-0.338-1.255
				c0.004-0.089,0.009-0.184,0.009-0.283c0-13.726-0.044-24.368-0.076-32.139c-0.088-21.244-0.101-24.51,0.965-25.56
				c0.411-0.405,0.907-0.395,1.348-0.387l0.212,0.003c16.85,0,29.806-0.045,39.266-0.077c25.875-0.088,29.2-0.1,30.241,0.988
				c0.379,0.396,0.356,0.872,0.338,1.255c-0.004,0.089-0.009,0.184-0.009,0.284c0,13.722,0.044,24.363,0.076,32.133
				c0.087,21.25,0.101,24.516-0.966,25.567c-0.412,0.405-0.908,0.393-1.348,0.387l-0.212-0.003c-16.85,0-29.806,0.044-39.266,0.077
				C87.93,235.883,83.191,235.9,79.389,235.9z M65.319,176.381c-0.202,0-0.305,0.013-0.357,0.064
				c-0.727,0.716-0.704,6.287-0.628,24.749c0.032,7.771,0.076,18.415,0.076,32.144c0,0.119-0.005,0.231-0.01,0.338
				c-0.011,0.225-0.015,0.376,0.025,0.417c0.705,0.737,7.361,0.714,29.418,0.638c9.461-0.032,22.418-0.077,39.27-0.077l0.234,0.003
				c0.318,0.008,0.466,0.002,0.531-0.061c0.727-0.716,0.704-6.289,0.628-24.755c-0.032-7.771-0.076-18.413-0.076-32.137
				c0-0.119,0.005-0.231,0.01-0.338c0.011-0.225,0.015-0.375-0.025-0.417c-0.705-0.737-7.361-0.713-29.418-0.638
				c-9.461,0.033-22.419,0.077-39.27,0.077l-0.234-0.003C65.429,176.382,65.371,176.381,65.319,176.381z"/>
		</g>
		<g id="XMLID_368_">
			<path id="XMLID_376_" style="fill:#9EBFD8;" d="M72.406,188.456c-2.759,0-2.567-3.134-2.567-2.567
				c0-2.759,3.134-2.567,2.567-2.567c2.759,0,2.567,3.134,2.567,2.567C74.973,188.649,71.84,188.456,72.406,188.456z"/>
			<path id="XMLID_375_" style="fill:#444244;" d="M109.996,188.456H80.777c-3.404,0-3.37-5.134,0-5.134h29.219
				c2.759,0,2.567,3.134,2.567,2.567C112.563,187.307,111.413,188.456,109.996,188.456z"/>
			<path id="XMLID_374_" style="fill:#444244;" d="M123.119,188.456h-6.07c-3.404,0-3.37-5.134,0-5.134h6.07
				c2.759,0,2.567,3.134,2.567,2.567C125.686,187.307,124.537,188.456,123.119,188.456z"/>
			<path id="XMLID_373_" style="fill:#9EBFD8;" d="M123.119,196.589c2.759,0,2.567-3.134,2.567-2.567
				c0-2.759-3.134-2.567-2.567-2.567c-2.759,0-2.567,3.134-2.567,2.567C120.552,196.781,123.686,196.589,123.119,196.589z"/>
			<path id="XMLID_372_" style="fill:#444244;" d="M85.53,196.589h29.219c3.404,0,3.37-5.134,0-5.134H85.53
				c-2.759,0-2.567,3.134-2.567,2.567C82.963,195.439,84.112,196.589,85.53,196.589z"/>
			<path id="XMLID_371_" style="fill:#444244;" d="M72.406,196.589h6.07c3.404,0,3.37-5.134,0-5.134h-6.07
				c-2.759,0-2.567,3.134-2.567,2.567C69.839,195.439,70.988,196.589,72.406,196.589z"/>
			<path id="XMLID_628_" style="fill:#9EBFD8;" d="M72.406,204.021c-2.759,0-2.567-3.134-2.567-2.567
				c0-2.759,3.134-2.567,2.567-2.567c2.759,0,2.567,3.134,2.567,2.567C74.973,204.213,71.84,204.021,72.406,204.021z"/>
			<path id="XMLID_627_" style="fill:#444244;" d="M109.996,204.021H80.777c-3.404,0-3.37-5.134,0-5.134h29.219
				c2.759,0,2.567,3.134,2.567,2.567C112.563,202.871,111.413,204.021,109.996,204.021z"/>
			<path id="XMLID_626_" style="fill:#444244;" d="M123.119,204.021h-6.07c-3.404,0-3.37-5.134,0-5.134h6.07
				c2.759,0,2.567,3.134,2.567,2.567C125.686,202.871,124.537,204.021,123.119,204.021z"/>
			<path id="XMLID_624_" style="fill:#9EBFD8;" d="M123.119,212.153c2.759,0,2.567-3.134,2.567-2.567
				c0-2.759-3.134-2.567-2.567-2.567c-2.759,0-2.567,3.134-2.567,2.567C120.552,212.345,123.686,212.153,123.119,212.153z"/>
			<path id="XMLID_370_" style="fill:#444244;" d="M85.53,212.153h29.219c3.404,0,3.37-5.134,0-5.134H85.53
				c-2.759,0-2.567,3.134-2.567,2.567C82.963,211.003,84.112,212.153,85.53,212.153z"/>
			<path id="XMLID_369_" style="fill:#444244;" d="M72.406,212.153h6.07c3.404,0,3.37-5.134,0-5.134h-6.07
				c-2.759,0-2.567,3.134-2.567,2.567C69.839,211.003,70.988,212.153,72.406,212.153z"/>
			<path id="XMLID_636_" style="fill:#9EBFD8;" d="M72.406,219.585c-2.759,0-2.567-3.134-2.567-2.567
				c0-2.759,3.134-2.567,2.567-2.567c2.759,0,2.567,3.134,2.567,2.567C74.973,219.777,71.84,219.585,72.406,219.585z"/>
			<path id="XMLID_635_" style="fill:#444244;" d="M109.996,219.585H80.777c-3.404,0-3.37-5.134,0-5.134h29.219
				c2.759,0,2.567,3.134,2.567,2.567C112.563,218.435,111.413,219.585,109.996,219.585z"/>
			<path id="XMLID_634_" style="fill:#444244;" d="M123.119,219.585c-5.239,0-8.637,0.657-8.637-2.567
				c0-1.417,1.149-2.567,2.567-2.567h6.07C126.523,214.451,126.489,219.585,123.119,219.585z"/>
			<path id="XMLID_632_" style="fill:#9EBFD8;" d="M123.119,227.717c2.759,0,2.567-3.134,2.567-2.567
				c0-2.759-3.134-2.567-2.567-2.567c-2.759,0-2.567,3.134-2.567,2.567C120.552,227.909,123.686,227.717,123.119,227.717z"/>
			<path id="XMLID_631_" style="fill:#444244;" d="M85.53,227.717h29.219c3.404,0,3.37-5.134,0-5.134
				c-30.124,0-31.786-0.946-31.786,2.567C82.963,226.568,84.112,227.717,85.53,227.717z"/>
			<path id="XMLID_630_" style="fill:#444244;" d="M72.406,227.717h6.07c3.404,0,3.37-5.134,0-5.134h-6.07
				c-2.759,0-2.567,3.134-2.567,2.567C69.839,226.568,70.988,227.717,72.406,227.717z"/>
		</g>
	</g>
</g>
</svg>
